<svg width="26" height="26" viewBox="0 0 26 26" fill="none" xmlns="http://www.w3.org/2000/svg">
<path d="M12.5044 0.0078125C19.4036 0.0078125 25.005 5.60921 25.005 12.5072C25.005 19.4064 19.4036 25.0078 12.5044 25.0078C5.60641 25.0078 0.00500488 19.4064 0.00500488 12.5072C0.00500488 5.60921 5.60641 0.0078125 12.5044 0.0078125ZM12.5044 11.1769L9.10228 7.7735C8.91973 7.59096 8.67842 7.49969 8.43836 7.49969C7.93324 7.49969 7.50063 7.90479 7.50063 8.43617C7.50063 8.67748 7.5919 8.91629 7.77445 9.10009L11.1778 12.5034L7.76695 15.9143C7.58315 16.0981 7.49188 16.3394 7.49188 16.5782C7.49188 17.1121 7.92949 17.5159 8.43086 17.5159C8.67092 17.5159 8.91098 17.4247 9.09353 17.2421L12.5044 13.8313L15.9165 17.2421C16.099 17.4247 16.3391 17.5159 16.5791 17.5159C17.0805 17.5159 17.5169 17.1121 17.5169 16.5782C17.5169 16.3394 17.4256 16.0981 17.2418 15.9143L13.8322 12.5034L17.2293 9.10634C17.4119 8.92254 17.5031 8.68373 17.5031 8.44242C17.5031 7.91104 17.0705 7.50469 16.5654 7.50469C16.3253 7.50469 16.084 7.59596 15.9015 7.77976L12.5044 11.1769Z" fill="#1C3177"/>
</svg>
