<?xml version="1.0" encoding="UTF-8"?>
<svg id="Layer_3" data-name="Layer 3" xmlns="http://www.w3.org/2000/svg" viewBox="0 0 20 20.01">
  <defs>
    <style>
      .cls-1 {
        fill: #696876;
      }

      .cls-1, .cls-2 {
        fill-rule: evenodd;
      }

      .cls-2 {
        fill: #f48382;
      }
    </style>
  </defs>
  <path class="cls-1" d="m3.87,1.29c0-.71.57-1.29,1.28-1.29h9.63c.71,0,1.28.58,1.28,1.29v.97h-.64v-.97c0-.36-.29-.65-.64-.65H5.15c-.35,0-.64.29-.64.65v.97h-.64v-.97Zm.64,13.71v3.71c0,.36.29.65.64.65h9.63c.35,0,.64-.29.64-.65v-3.71h.64v3.71c0,.71-.57,1.29-1.28,1.29H5.15c-.71,0-1.28-.58-1.28-1.29v-3.71h.64Z"/>
  <path class="cls-1" d="m5.47,2.42c0-.45.36-.81.8-.81h7.38c.44,0,.8.36.8.81h-.64c0-.09-.07-.16-.16-.16h-7.38c-.09,0-.16.07-.16.16h-.64Zm.64,12.9v.81c0,.36.29.65.64.65h6.42c.35,0,.64-.29.64-.65v-.81h.64v.81c0,.71-.57,1.29-1.28,1.29h-6.42c-.71,0-1.28-.58-1.28-1.29v-.81h.64Z"/>
  <path class="cls-1" d="m2.32,3.83c-.2-.03-.38.12-.38.32v9.83c0,.16.11.29.27.32l7.05,1.22c.47.08.94.08,1.41,0l7.05-1.22c.15-.03.27-.16.27-.32V4.15c0-.2-.18-.35-.38-.32l-.53.09c-.17.03-.34-.09-.37-.26-.03-.18.09-.34.26-.37l.53-.09c.59-.1,1.13.35,1.13.95v9.83c0,.47-.34.87-.8.95l-7.05,1.22c-.54.09-1.09.09-1.63,0l-7.05-1.22c-.46-.08-.8-.48-.8-.95V4.15c0-.6.54-1.06,1.13-.95l.53.09c.17.03.29.2.26.37-.03.18-.2.29-.37.26l-.53-.09Z"/>
  <path class="cls-1" d="m3.6,2.39c-.2-.04-.38.12-.38.32v9.7c0,.15.11.29.26.32l5.66,1.14c.54.11,1.1.11,1.64,0l5.66-1.14c.15-.03.26-.16.26-.32V2.71c0-.2-.18-.35-.38-.32l-5.5,1.01c-.57.1-1.15.1-1.72,0l-5.5-1.01Zm-1.02.32c0-.6.54-1.06,1.14-.95l5.5,1.01c.49.09,1,.09,1.49,0l5.5-1.01c.59-.11,1.14.35,1.14.95v9.7c0,.46-.32.86-.77.95l-5.66,1.14c-.62.13-1.27.13-1.89,0l-5.66-1.14c-.45-.09-.77-.49-.77-.95V2.71Z"/>
  <path class="cls-2" d="m3.91,4.38c.03-.18.2-.29.37-.26l4.41.81c.17.03.29.2.26.38-.03.18-.2.29-.37.26l-4.41-.81c-.17-.03-.29-.2-.26-.38Z"/>
  <path class="cls-2" d="m3.91,6.64c.03-.18.2-.29.37-.26l4.41.81c.17.03.29.2.26.38-.03.18-.2.29-.37.26l-4.41-.81c-.17-.03-.29-.2-.26-.38Z"/>
  <path class="cls-2" d="m3.91,8.89c.03-.18.2-.29.37-.26l4.41.81c.17.03.29.2.26.38s-.2.29-.37.26l-4.41-.81c-.17-.03-.29-.2-.26-.38Z"/>
  <path class="cls-2" d="m3.91,11.15c.03-.18.2-.29.37-.26l4.41.81c.17.03.29.2.26.38-.03.18-.2.29-.37.26l-4.41-.81c-.17-.03-.29-.2-.26-.38Z"/>
  <path class="cls-2" d="m16.02,4.38c.03.18-.08.34-.26.38l-4.41.81c-.17.03-.34-.08-.37-.26-.03-.18.08-.34.26-.38l4.41-.81c.17-.03.34.08.37.26Z"/>
  <path class="cls-2" d="m16.02,6.64c.03.18-.08.34-.26.38l-4.41.81c-.17.03-.34-.08-.37-.26-.03-.18.08-.34.26-.38l4.41-.81c.17-.03.34.08.37.26Z"/>
  <path class="cls-2" d="m16.02,8.89c.03.18-.08.34-.26.38l-4.41.81c-.17.03-.34-.08-.37-.26-.03-.18.08-.34.26-.38l4.41-.81c.17-.03.34.08.37.26Z"/>
  <path class="cls-1" d="m9.96,2.9c.18,0,.32.14.32.32v12.58c0,.18-.14.32-.32.32s-.32-.14-.32-.32V3.23c0-.18.14-.32.32-.32Z"/>
  <path class="cls-1" d="m8.36,18.39c0-.18.14-.32.32-.32h2.57c.18,0,.32.14.32.32s-.14.32-.32.32h-2.57c-.18,0-.32-.14-.32-.32Z"/>
</svg>