<?xml version="1.0" encoding="utf-8"?>
<!-- Generator: Adobe Illustrator 27.4.0, SVG Export Plug-In . SVG Version: 6.00 Build 0)  -->
<svg version="1.1" id="Layer_1" xmlns="http://www.w3.org/2000/svg" xmlns:xlink="http://www.w3.org/1999/xlink" x="0px" y="0px"
	 viewBox="0 0 24 24" style="enable-background:new 0 0 24 24;" xml:space="preserve">
<style type="text/css">
	.st0{fill:#6E6BB3;}
</style>
<path class="st0" d="M12.4,9.4c-0.1-0.1-0.2-0.2-0.4-0.2c-0.1,0-0.2,0.1-0.4,0.2l-2.8,2.8c-0.2,0.2-0.2,0.4-0.1,0.6S9,13,9.2,13h5.6
	c0.2,0,0.4-0.1,0.5-0.3c0.1-0.2,0-0.4-0.1-0.6L12.4,9.4z M12,2c1.4,0,2.7,0.3,3.9,0.8c1.2,0.5,2.3,1.2,3.2,2.1
	c0.9,0.9,1.6,2,2.1,3.2S22,10.6,22,12c0,1.4-0.3,2.7-0.8,3.9c-0.5,1.2-1.2,2.3-2.1,3.2c-0.9,0.9-2,1.6-3.2,2.1
	C14.7,21.7,13.4,22,12,22c-1.4,0-2.7-0.3-3.9-0.8c-1.2-0.5-2.3-1.2-3.2-2.1c-0.9-0.9-1.6-2-2.1-3.2C2.3,14.7,2,13.4,2,12
	c0-1.4,0.3-2.7,0.8-3.9C3.3,6.9,4,5.8,4.9,4.9c0.9-0.9,2-1.6,3.2-2.1C9.3,2.3,10.6,2,12,2z M12,4C9.8,4,7.9,4.8,6.3,6.3S4,9.8,4,12
	c0,2.2,0.8,4.1,2.3,5.7S9.8,20,12,20c2.2,0,4.1-0.8,5.7-2.3S20,14.2,20,12c0-2.2-0.8-4.1-2.3-5.7S14.2,4,12,4z"/>
</svg>
