<svg width="20" height="16" viewBox="0 0 20 16" fill="none" xmlns="http://www.w3.org/2000/svg">
<path d="M18.168 3.45449C17.3167 1.42828 15.3037 0 12.962 0H8.03542C3.60437 0 0 3.58627 0 7.99432C0 12.4026 3.60437 15.9886 8.03412 15.9886L14.1613 16C15.9324 16 17.3723 14.566 17.3723 12.8049C17.3723 11.0436 15.9311 9.60958 14.1613 9.60958H8.21524C7.32645 9.60958 6.60325 8.88985 6.60325 8.00574C6.60325 7.12163 7.32645 6.40172 8.21524 6.40172H13.1405C13.5817 6.40172 13.9401 6.04606 13.9401 5.6068C13.9401 5.16757 13.5817 4.81191 13.1405 4.81191H8.21524C6.44414 4.81191 5.00419 6.24443 5.00419 8.00694C5.00419 9.76976 6.44541 11.2023 8.21524 11.2023H14.1613C15.0501 11.2023 15.7733 11.922 15.7733 12.8061C15.7733 13.6903 15.0501 14.4103 14.1626 14.4103L8.03542 14.3989C4.48669 14.3989 1.59906 11.5269 1.59906 7.99582C1.59906 4.46476 4.48669 1.59122 8.03542 1.59122H12.962C14.5352 1.59122 15.9014 2.49099 16.5676 3.80024C15.9855 4.19412 15.6038 4.85726 15.6038 5.61107C15.6038 6.81841 16.5883 7.79869 17.8019 7.79869C19.0154 7.79869 20 6.81961 20 5.61107C20 4.52712 19.207 3.62735 18.1667 3.45449" fill="#686775"/>
</svg>
