<svg width="18" height="24" viewBox="0 0 18 24" fill="none" xmlns="http://www.w3.org/2000/svg">
<path d="M15.9482 23.5161H1.42571C0.908195 23.5161 0.48877 23.0967 0.48877 22.5792V4.476C0.48877 3.95849 0.908195 3.53906 1.42571 3.53906H15.9482C16.4657 3.53906 16.8852 3.95849 16.8852 4.476V22.5792C16.8852 23.0967 16.4657 23.5161 15.9482 23.5161Z" fill="#686775"/>
<path d="M10.9359 1.87507H10.1863C10.1858 1.09825 9.51489 0.46875 8.6872 0.46875C7.85951 0.46875 7.18865 1.09825 7.1881 1.87507H6.43855C5.61397 1.87507 4.93945 2.50824 4.93945 3.28212C4.93945 4.05601 5.61397 4.68918 6.43855 4.68918H10.9359C11.7604 4.68918 12.435 4.05601 12.435 3.28212C12.435 2.50824 11.7604 1.87507 10.9359 1.87507Z" fill="#F48383"/>
<path d="M15.9484 3.07176H12.8908C12.7812 2.13629 11.9463 1.40632 10.9358 1.40632H10.5925C10.3731 0.598213 9.60216 0 8.68718 0C7.7722 0 7.00124 0.598213 6.78183 1.40632H6.43853C5.42803 1.40632 4.5932 2.13629 4.48359 3.07176H1.42591C0.651111 3.07176 0.0205078 3.70182 0.0205078 4.47717V22.5802C0.0205078 23.355 0.651111 23.9856 1.42591 23.9856H15.9484C16.7232 23.9856 17.3539 23.355 17.3539 22.5802V4.47717C17.3539 3.70182 16.7232 3.07176 15.9484 3.07176ZM5.43407 3.07176C5.53911 2.6549 5.94993 2.34326 6.43853 2.34326H7.18808C7.44665 2.34326 7.65655 2.13391 7.65655 1.87534C7.6571 1.35764 8.11934 0.936937 8.68718 0.936937C9.25501 0.936937 9.71726 1.35764 9.71781 1.87534C9.71781 2.13391 9.92771 2.34326 10.1863 2.34326H10.9358C11.4244 2.34326 11.8353 2.6549 11.9403 3.07176C11.9575 3.13929 11.9665 3.20993 11.9665 3.28203C11.9665 3.57482 11.8184 3.83669 11.5869 4.0087C11.4091 4.14082 11.1823 4.22043 10.9358 4.22043H6.43853C6.19203 4.22043 5.9653 4.14082 5.78743 4.0087C5.55594 3.83669 5.4079 3.57482 5.4079 3.28203C5.4079 3.20993 5.41686 3.13929 5.43407 3.07176ZM16.4169 22.5802C16.4169 22.8384 16.2067 23.0487 15.9484 23.0487H1.42591C1.16771 23.0487 0.957445 22.8384 0.957445 22.5802V4.47717C0.957445 4.2186 1.16771 4.0087 1.42591 4.0087H4.62468C4.92296 4.68286 5.62383 5.15736 6.43853 5.15736H10.9358C11.7505 5.15736 12.4514 4.68286 12.7497 4.0087H15.9484C16.2067 4.0087 16.4169 4.2186 16.4169 4.47717V22.5802Z" fill="#686775"/>
<path d="M6.61827 12.6733H4.66644C4.40768 12.6733 4.19797 12.4635 4.19797 12.2048V11.3055H3.30001C3.04126 11.3055 2.83154 11.0958 2.83154 10.8371V8.88324C2.83154 8.62448 3.04126 8.41477 3.30001 8.41477H4.19797V7.51534C4.19797 7.25659 4.40768 7.04688 4.66644 7.04688H6.61827C6.87703 7.04688 7.08674 7.25659 7.08674 7.51534V8.41477H7.9847C8.24345 8.41477 8.45317 8.62448 8.45317 8.88324V10.8371C8.45317 11.0958 8.24345 11.3055 7.9847 11.3055H7.08674V12.2048C7.08674 12.4635 6.87703 12.6733 6.61827 12.6733ZM5.13491 11.7363H6.1498V10.8371C6.1498 10.5783 6.3597 10.3686 6.61827 10.3686H7.51623V9.3517H6.61827C6.3597 9.3517 6.1498 9.14181 6.1498 8.88324V7.98381H5.13491V8.88324C5.13491 9.14181 4.92501 9.3517 4.66644 9.3517H3.76848V10.3686H4.66644C4.92501 10.3686 5.13491 10.5783 5.13491 10.8371V11.7363Z" fill="#F48383"/>
<path d="M14.0745 15.4877H5.17355C4.91479 15.4877 4.70508 15.278 4.70508 15.0192C4.70508 14.7605 4.91479 14.5508 5.17355 14.5508H14.0745C14.3332 14.5508 14.5429 14.7605 14.5429 15.0192C14.5429 15.278 14.3332 15.4877 14.0745 15.4877Z" fill="#F48383"/>
<path d="M3.30068 15.4877C3.04193 15.4877 2.83203 15.278 2.83203 15.0192C2.83203 14.7605 3.04156 14.5508 3.30032 14.5508H3.30068C3.55944 14.5508 3.76915 14.7605 3.76915 15.0192C3.76915 15.278 3.55944 15.4877 3.30068 15.4877Z" fill="#F48383"/>
<path d="M14.0748 18.3002H3.30001C3.04126 18.3002 2.83154 18.0905 2.83154 17.8317C2.83154 17.573 3.04126 17.3633 3.30001 17.3633H14.0748C14.3335 17.3633 14.5433 17.573 14.5433 17.8317C14.5433 18.0905 14.3335 18.3002 14.0748 18.3002Z" fill="#F48383"/>
<path d="M14.0748 21.1166H3.30001C3.04126 21.1166 2.83154 20.9069 2.83154 20.6482C2.83154 20.3894 3.04126 20.1797 3.30001 20.1797H14.0748C14.3335 20.1797 14.5433 20.3894 14.5433 20.6482C14.5433 20.9069 14.3335 21.1166 14.0748 21.1166Z" fill="#F48383"/>
</svg>
