<svg width="22" height="22" viewBox="0 0 22 22" fill="none" xmlns="http://www.w3.org/2000/svg">
<g clip-path="url(#clip0_393_23582)">
<g clip-path="url(#clip1_393_23582)">
<g clip-path="url(#clip2_393_23582)">
<path fill-rule="evenodd" clip-rule="evenodd" d="M4.56018 0.428438C4.85988 0.154112 5.26636 -3.48754e-07 5.69018 0L15.1817 6.99361e-06C16.0642 7.69112e-06 16.7798 0.654918 16.7798 1.46279V6.39967C16.7798 7.74523 16.7798 7.33626 16.7798 10.6052V20.479C16.7798 21.2868 16.0642 21.9418 15.1817 21.9418H1.59806C0.715479 21.9418 0 21.2868 0 20.479V5.20847C0 4.82052 0.168367 4.44846 0.468063 4.17413L2.71388 2.11844L4.56018 0.428438Z" fill="#686775"/>
<mask id="mask0_393_23582" style="mask-type:alpha" maskUnits="userSpaceOnUse" x="0" y="0" width="17" height="22">
<path fill-rule="evenodd" clip-rule="evenodd" d="M4.56018 0.428438C4.85988 0.154112 5.26636 -3.48754e-07 5.69018 0L15.1817 6.99361e-06C16.0642 7.69112e-06 16.7798 0.654918 16.7798 1.46279V6.39967C16.7798 7.74523 16.7798 7.33626 16.7798 10.6052V20.479C16.7798 21.2868 16.0642 21.9418 15.1817 21.9418H1.59806C0.715479 21.9418 0 21.2868 0 20.479V5.20847C0 4.82052 0.168367 4.44846 0.468063 4.17413L2.71388 2.11844L4.56018 0.428438Z" fill="#3D3D3D"/>
</mask>
<g mask="url(#mask0_393_23582)">
<rect width="7.33333" height="6.11111" fill="white"/>
<rect width="6.11111" height="4.88889" fill="#686775"/>
</g>
<path fill-rule="evenodd" clip-rule="evenodd" d="M8.4624 5.00631C8.4624 4.80434 8.64128 4.64062 8.86191 4.64062H15.2542C15.4748 4.64062 15.6538 4.80434 15.6538 5.00631C15.6538 5.20828 15.4748 5.37201 15.2542 5.37201H8.86191C8.64128 5.37201 8.4624 5.20828 8.4624 5.00631Z" fill="#F48383"/>
<path fill-rule="evenodd" clip-rule="evenodd" d="M8.4624 7.20164C8.4624 6.99967 8.64128 6.83594 8.86191 6.83594H15.2542C15.4748 6.83594 15.6538 6.99967 15.6538 7.20164C15.6538 7.40361 15.4748 7.56733 15.2542 7.56733H8.86191C8.64128 7.56733 8.4624 7.40361 8.4624 7.20164Z" fill="#F48383"/>
<path fill-rule="evenodd" clip-rule="evenodd" d="M8.46191 9.39303C8.46191 9.19107 8.6181 9.02734 8.81075 9.02734H14.3922C14.5849 9.02734 14.7411 9.19107 14.7411 9.39303C14.7411 9.595 14.5849 9.75873 14.3922 9.75873H8.81075C8.6181 9.75873 8.46191 9.595 8.46191 9.39303Z" fill="#F48383"/>
<path fill-rule="evenodd" clip-rule="evenodd" d="M8.25 11.4583C8.25 11.2052 8.37071 11 8.5196 11H12.5637C12.7126 11 12.8333 11.2052 12.8333 11.4583C12.8333 11.7115 12.7126 11.9167 12.5637 11.9167H8.5196C8.37071 11.9167 8.25 11.7115 8.25 11.4583Z" fill="#F48383"/>
<path fill-rule="evenodd" clip-rule="evenodd" d="M8.46191 13.7837C8.46191 13.5817 8.57987 13.418 8.72537 13.418H11.7551C11.9006 13.418 12.0186 13.5817 12.0186 13.7837C12.0186 13.9857 11.9006 14.1494 11.7551 14.1494H8.72537C8.57987 14.1494 8.46191 13.9857 8.46191 13.7837Z" fill="#F48383"/>
<path fill-rule="evenodd" clip-rule="evenodd" d="M8.4624 19.6353C8.4624 19.4333 8.64128 19.2695 8.86191 19.2695H11.4588C11.6794 19.2695 11.8583 19.4333 11.8583 19.6353C11.8583 19.8372 11.6794 20.0009 11.4588 20.0009H8.86191C8.64128 20.0009 8.4624 19.8372 8.4624 19.6353Z" fill="#F48383"/>
<path fill-rule="evenodd" clip-rule="evenodd" d="M3.6665 17.8057C3.6665 17.4018 4.02424 17.0742 4.46554 17.0742H6.06361C6.50491 17.0742 6.86265 17.4018 6.86265 17.8057V19.2684C6.86265 19.6724 6.50491 19.9999 6.06361 19.9999H4.46554C4.02424 19.9999 3.6665 19.6724 3.6665 19.2684V17.8057ZM6.06361 17.8057H4.46554V19.2684H6.06361V17.8057Z" fill="#F48383"/>
<path fill-rule="evenodd" clip-rule="evenodd" d="M3.6665 13.4151C3.6665 13.011 4.02424 12.6836 4.46554 12.6836H6.06361C6.50491 12.6836 6.86265 13.011 6.86265 13.4151V14.8778C6.86265 15.2817 6.50491 15.6092 6.06361 15.6092H4.46554C4.02424 15.6092 3.6665 15.2817 3.6665 14.8778V13.4151ZM6.06361 13.4151H4.46554V14.8778H6.06361V13.4151Z" fill="#F48383"/>
<path fill-rule="evenodd" clip-rule="evenodd" d="M3.6665 9.02828C3.6665 8.62434 4.02424 8.29688 4.46554 8.29688H6.06361C6.50491 8.29688 6.86265 8.62434 6.86265 9.02828V10.4911C6.86265 10.895 6.50491 11.2224 6.06361 11.2224H4.46554C4.02424 11.2224 3.6665 10.895 3.6665 10.4911V9.02828ZM6.06361 9.02828H4.46554V10.4911H6.06361V9.02828Z" fill="#F48383"/>
<path fill-rule="evenodd" clip-rule="evenodd" d="M20.4777 1.74483C20.1436 1.5721 19.7192 1.68031 19.53 1.9865L11.4602 15.0441L10.5806 17.7593L12.6705 15.6696L20.7403 2.61196C20.9295 2.30578 20.8119 1.91754 20.4777 1.74483ZM20.8715 1.10778C21.5896 1.47896 21.8422 2.31328 21.4355 2.9713L13.3658 16.0289C13.3359 16.0771 13.3004 16.1222 13.2594 16.1629L11.1696 18.2527C10.5969 18.8253 9.57354 18.2965 9.81461 17.5524L10.6942 14.8373C10.7114 14.7842 10.7351 14.7329 10.7649 14.6848L18.8347 1.62716C19.2414 0.969143 20.1532 0.73661 20.8715 1.10778Z" fill="#F48383"/>
<path fill-rule="evenodd" clip-rule="evenodd" d="M10.8673 14.6668C10.976 14.4909 11.2198 14.4287 11.4118 14.528L12.9997 15.3486C13.1917 15.4478 13.2592 15.6709 13.1506 15.8468C13.0418 16.0227 12.798 16.0849 12.606 15.9856L11.0181 15.1649C10.8261 15.0658 10.7586 14.8427 10.8673 14.6668Z" fill="#F48383"/>
<path fill-rule="evenodd" clip-rule="evenodd" d="M18.0601 2.91287C18.1689 2.73696 18.4126 2.6748 18.6047 2.77403L20.1926 3.5947C20.3846 3.69392 20.4522 3.91696 20.3434 4.09289C20.2347 4.26879 19.9909 4.33096 19.7988 4.23173L18.2109 3.41106C18.0189 3.31184 17.9515 3.08879 18.0601 2.91287Z" fill="#F48383"/>
</g>
</g>
</g>
<defs>
<clipPath id="clip0_393_23582">
<rect width="22" height="22" fill="white"/>
</clipPath>
<clipPath id="clip1_393_23582">
<rect width="22" height="22" fill="white"/>
</clipPath>
<clipPath id="clip2_393_23582">
<rect width="22" height="22" fill="white"/>
</clipPath>
</defs>
</svg>
