<svg width="24" height="24" viewBox="0 0 24 24" fill="none" xmlns="http://www.w3.org/2000/svg">
<path d="M20.8307 12.1938C20.8307 17.1398 16.821 21.1494 11.8748 21.1494C6.92863 21.1494 2.91895 17.1398 2.91895 12.1938C2.91895 7.24782 6.92863 3.23828 11.8748 3.23828C16.821 3.23828 20.8307 7.24782 20.8307 12.1938Z" fill="#686775"/>
<path fill-rule="evenodd" clip-rule="evenodd" d="M11.9998 10.0026C10.8952 10.0026 9.9997 10.898 9.9997 12.0026C9.9997 12.1867 9.85046 12.336 9.66636 12.336C9.48225 12.336 9.33301 12.1867 9.33301 12.0026C9.33301 10.5299 10.527 9.33594 11.9998 9.33594C12.1838 9.33594 12.3332 9.48517 12.3332 9.66927C12.3332 9.85337 12.1838 10.0026 11.9998 10.0026Z" fill="#F48383" stroke="#F48383" stroke-width="0.5"/>
<path fill-rule="evenodd" clip-rule="evenodd" d="M14.3338 11.6641C14.5179 11.6641 14.6671 11.8133 14.6671 11.9974C14.6671 13.4702 13.4732 14.664 12.0003 14.664C11.8162 14.664 11.667 14.5148 11.667 14.3308C11.667 14.1467 11.8162 13.9974 12.0003 13.9974C13.1049 13.9974 14.0004 13.1019 14.0004 11.9974C14.0004 11.8133 14.1496 11.6641 14.3338 11.6641Z" fill="#F48383" stroke="#F48383" stroke-width="0.5"/>
<path fill-rule="evenodd" clip-rule="evenodd" d="M12.0005 7.33464C9.42311 7.33464 7.33369 9.42399 7.33369 12.0013C7.33369 14.5787 9.42311 16.668 12.0005 16.668C14.578 16.668 16.6674 14.5787 16.6674 12.0013C16.6674 9.42399 14.578 7.33464 12.0005 7.33464ZM6.66699 12.0013C6.66699 9.05579 9.05491 6.66797 12.0005 6.66797C14.9462 6.66797 17.3341 9.05579 17.3341 12.0013C17.3341 14.9469 14.9462 17.3347 12.0005 17.3347C9.05491 17.3347 6.66699 14.9469 6.66699 12.0013Z" fill="#F48383" stroke="#F48383" stroke-width="0.5"/>
<path fill-rule="evenodd" clip-rule="evenodd" d="M10.2109 1.89474C10.2109 1.39276 10.6258 1 11.12 1H12.6672C12.8512 1 13.0005 1.14924 13.0005 1.33333C13.0005 1.48748 11.3543 3.36624 10.6259 3.49909C9.39593 3.72363 8.25552 4.19532 7.26084 4.85913C4.89458 6.43811 6.70926 4.60009 4.9374 7.12478C4.25743 8.09375 3.77491 9.2037 3.5453 10.3999C3.06522 12.9004 3.18523 11.7246 3.5453 13.6001C3.77491 14.7963 4.25742 15.9063 4.93738 16.8752C6.37392 18.9231 5.68666 18.0896 7.26082 19.1409C8.25551 19.8047 9.39593 20.2764 10.6259 20.5009C12.5147 19.8706 13.0005 22.0572 13.0005 22.6667C13.0005 22.8508 12.8512 23 12.6672 23H11.12C10.6258 23 10.2109 22.6073 10.2109 22.1053V21.0981C9.10174 20.8599 8.0647 20.4333 7.13704 19.8544L6.39805 20.575C6.04375 20.9205 5.47272 20.9205 5.11842 20.575L3.49015 18.9872C3.13118 18.6371 3.13118 18.066 3.49015 17.7159L4.21975 17.0045C3.63046 16.103 3.19543 15.0955 2.95156 14.0175H1.90903C1.41492 14.0175 1 13.6248 1 13.1228V10.8772C1 10.3752 1.41492 9.98248 1.90903 9.98248H2.95156C3.19543 8.90454 3.63046 7.89704 4.21976 6.99558L3.49015 6.28406C3.13118 5.934 3.13118 5.3629 3.49015 5.01283L5.11842 3.42494C5.47272 3.07944 6.04375 3.07944 6.39805 3.42494L7.13706 4.14562C8.06472 3.56676 9.10174 3.14018 10.2109 2.90192V1.89474Z" fill="#686775" stroke="#686775" stroke-width="0.5"/>
<path fill-rule="evenodd" clip-rule="evenodd" d="M12.3329 1.33333C12.3329 1.14924 12.4822 1 12.6662 1H12.9519C13.4461 1 13.8568 1.39505 13.8568 1.89474V2.90233C14.9567 3.14054 15.9851 3.56656 16.9051 4.14447L17.6366 3.42578C17.9895 3.07914 18.5592 3.07914 18.912 3.42578L20.5283 5.01368C20.8845 5.36355 20.8845 5.9333 20.5283 6.28318L19.8033 6.99537C20.3886 7.89696 20.8205 8.90453 21.0627 9.98248H22.0952C22.5893 9.98248 23 10.3775 23 10.8772V13.1228C23 13.6225 22.5893 14.0175 22.0952 14.0175H21.0627C20.8205 15.0955 20.3886 16.1031 19.8033 17.0046L20.5283 17.7169C20.8845 18.0667 20.8845 18.6364 20.5283 18.9863L18.912 20.5742C18.5592 20.9209 17.9895 20.9209 17.6366 20.5742L16.9051 19.8556C15.9851 20.4335 14.9567 20.8595 13.8568 21.0977V22.1053C13.8568 22.605 13.4461 23 12.9519 23H12.6662C12.4822 23 12.3329 22.8508 12.3329 22.6667C12.3329 22.2373 11.8734 20.5103 13.4415 20.501C14.6618 20.2766 15.7934 19.8052 16.7804 19.1415C18.8748 17.7359 18.0116 18.4192 19.0864 16.8762C19.7614 15.9072 20.2405 14.7971 20.4684 13.6006C20.593 12.9467 20.829 12.1944 20.4684 10.3994C20.2405 9.20292 19.7614 8.09282 19.0864 7.12384C18.0118 5.58031 18.8736 6.265 16.7804 4.8585C15.7934 4.19489 14.6618 3.72343 13.4415 3.49901C12.9158 3.40236 8.67684 3.23889 12.3329 1.33333Z" fill="#686775" stroke="#686775" stroke-width="0.5"/>
</svg>
