<svg width="24" height="24" viewBox="0 0 24 24" fill="none" xmlns="http://www.w3.org/2000/svg">
<g clip-path="url(#clip0_393_25556)">
<path fill-rule="evenodd" clip-rule="evenodd" d="M7.44482 4.87781C7.44482 2.33704 9.47728 0.277344 11.9844 0.277344C14.4916 0.277344 16.5241 2.33704 16.5241 4.87781C16.5241 7.41856 14.4916 9.47826 11.9844 9.47826C9.47728 9.47826 7.44482 7.41856 7.44482 4.87781Z" fill="#686775" stroke="#686775" stroke-width="0.5"/>
<path fill-rule="evenodd" clip-rule="evenodd" d="M9.09544 11.9849C7.27204 11.9849 5.79389 13.4828 5.79389 15.3307V20.3494C5.79389 21.7353 6.90251 22.8587 8.27005 22.8587H15.6985C17.066 22.8587 18.1747 21.7353 18.1747 20.3494V15.3307C18.1747 13.4828 16.6965 11.9849 14.8731 11.9849H13.6351C13.4071 11.9849 13.2224 11.7976 13.2224 11.5667C13.2224 11.3357 13.4071 11.1484 13.6351 11.1484H14.8731C17.1524 11.1484 19 13.0209 19 15.3307V20.3494C19 22.1971 17.5219 23.6951 15.6985 23.6951H8.27005C6.44665 23.6951 4.96851 22.1971 4.96851 20.3494V15.3307C4.96851 13.0209 6.81619 11.1484 9.09544 11.1484H10.3335C10.5614 11.1484 10.7462 11.3357 10.7462 11.5667C10.7462 11.7976 10.5614 11.9849 10.3335 11.9849H9.09544Z" fill="#686775" stroke="#686775" stroke-width="0.5"/>
<path fill-rule="evenodd" clip-rule="evenodd" d="M14.8724 13.6602C15.1003 13.6602 15.2851 13.8474 15.2851 14.0784V16.5877C15.2851 16.8187 15.1003 17.006 14.8724 17.006C14.6445 17.006 14.4597 16.8187 14.4597 16.5877V14.0784C14.4597 13.8474 14.6445 13.6602 14.8724 13.6602Z" fill="#F48383" stroke="#F48383" stroke-width="0.5"/>
<path fill-rule="evenodd" clip-rule="evenodd" d="M13.2222 15.3323C13.2222 15.1014 13.4069 14.9141 13.6349 14.9141H16.111C16.3389 14.9141 16.5237 15.1014 16.5237 15.3323C16.5237 15.5633 16.3389 15.7505 16.111 15.7505H13.6349C13.4069 15.7505 13.2222 15.5633 13.2222 15.3323Z" fill="#F48383" stroke="#F48383" stroke-width="0.5"/>
</g>
<defs>
<clipPath id="clip0_393_25556">
<rect width="24" height="24" fill="white"/>
</clipPath>
</defs>
</svg>
