<svg width="17" height="20" viewBox="0 0 17 20" fill="none" xmlns="http://www.w3.org/2000/svg">
<g clip-path="url(#clip0_623_6155)">
<path fill-rule="evenodd" clip-rule="evenodd" d="M0.261719 3.53488C0.261719 2.82526 0.834246 2.25 1.54049 2.25H3.63848C3.81505 2.25 3.95817 2.39381 3.95817 2.57121C3.95817 2.74862 3.81505 2.89243 3.63848 2.89243H1.54049C1.18737 2.89243 0.901106 3.18006 0.901106 3.53488V7.26382C0.901106 7.50126 1.03144 7.71933 1.24004 7.8309L4.08842 9.35446C4.24427 9.4379 4.30336 9.63238 4.22039 9.78903C4.13743 9.94559 3.94382 10.005 3.78796 9.92161L0.939575 8.39799C0.522392 8.17484 0.261719 7.73869 0.261719 7.26382V3.53488ZM12.5499 2.57121C12.5499 2.39381 12.6931 2.25 12.8696 2.25H14.9676C15.6739 2.25 16.2464 2.82526 16.2464 3.53488V7.26382C16.2464 7.73869 15.9858 8.17484 15.5686 8.39799L12.7202 9.92161C12.5643 10.005 12.3707 9.94559 12.2878 9.78903C12.2047 9.63238 12.2639 9.4379 12.4197 9.35446L15.2681 7.8309C15.4767 7.71933 15.607 7.50126 15.607 7.26382V3.53488C15.607 3.18006 15.3208 2.89243 14.9676 2.89243H12.8696C12.6931 2.89243 12.5499 2.74862 12.5499 2.57121Z" fill="#F48383"/>
<path fill-rule="evenodd" clip-rule="evenodd" d="M5.05724 0C4.17443 0 3.45877 0.719075 3.45877 1.6061V8.03049C3.45877 10.6916 5.60574 12.8488 8.25417 12.8488C10.9026 12.8488 13.0495 10.6916 13.0495 8.03049V1.6061C13.0495 0.719074 12.334 0 11.4511 0H5.05724Z" fill="#686775"/>
<path fill-rule="evenodd" clip-rule="evenodd" d="M8.25405 12.207C8.43061 12.207 8.57375 12.3508 8.57375 12.5282V16.0617C8.57375 16.2391 8.43061 16.3829 8.25405 16.3829C8.07749 16.3829 7.93436 16.2391 7.93436 16.0617V12.5282C7.93436 12.3508 8.07749 12.207 8.25405 12.207Z" fill="#686775"/>
<path fill-rule="evenodd" clip-rule="evenodd" d="M4.73749 17.6686C4.73749 16.7815 5.45314 16.0625 6.33595 16.0625H10.1722C11.0551 16.0625 11.7708 16.7815 11.7708 17.6686V19.5959C11.7708 19.7733 11.6276 19.9171 11.451 19.9171H5.05717C4.88061 19.9171 4.73749 19.7733 4.73749 19.5959V17.6686Z" fill="#686775"/>
<path fill-rule="evenodd" clip-rule="evenodd" d="M2.81934 19.5946C2.81934 19.4172 2.96246 19.2734 3.13903 19.2734H13.3692C13.5458 19.2734 13.6889 19.4172 13.6889 19.5946C13.6889 19.7721 13.5458 19.9159 13.3692 19.9159H3.13903C2.96246 19.9159 2.81934 19.7721 2.81934 19.5946Z" fill="#686775"/>
<path fill-rule="evenodd" clip-rule="evenodd" d="M7.68077 3.33078C7.91531 2.85328 8.59296 2.85328 8.82749 3.33078L9.312 4.31724L10.3955 4.47543C10.9199 4.552 11.1293 5.19955 10.7498 5.57123L9.9658 6.33908L10.1509 7.42331C10.2405 7.94812 9.69227 8.34834 9.2232 8.10056L8.25414 7.58866L7.28506 8.10056C6.81599 8.34834 6.26775 7.94812 6.35734 7.42331L6.54241 6.33908L5.75842 5.57123C5.37894 5.19955 5.58834 4.552 6.11277 4.47543L7.19624 4.31724L7.68077 3.33078ZM8.25414 3.61509L7.7696 4.60156C7.67646 4.79117 7.49643 4.9226 7.28818 4.953L6.20472 5.11118L6.98872 5.87904C7.13941 6.02663 7.20818 6.23928 7.1726 6.44769L6.98753 7.53192L7.9566 7.02001C8.14287 6.92162 8.3654 6.92162 8.55167 7.02001L9.52078 7.53192L9.33569 6.44769C9.30011 6.23928 9.36883 6.02663 9.51952 5.87904L10.3036 5.11118L9.22009 4.953C9.01183 4.9226 8.8318 4.79117 8.73866 4.60156L8.25414 3.61509Z" fill="#F48383"/>
</g>
<defs>
<clipPath id="clip0_623_6155">
<rect width="16.0321" height="20" fill="white" transform="translate(0.261719)"/>
</clipPath>
</defs>
</svg>
