<svg width="22" height="25" viewBox="0 0 22 25" fill="none" xmlns="http://www.w3.org/2000/svg">
<path fill-rule="evenodd" clip-rule="evenodd" d="M3.95703 2.48387C3.95703 1.66435 4.61898 1 5.43553 1H16.5243C17.3408 1 18.0027 1.66435 18.0027 2.48387V3.59677H17.2635V2.48387C17.2635 2.07411 16.9325 1.74194 16.5243 1.74194H5.43553C5.02725 1.74194 4.69628 2.07411 4.69628 2.48387V3.59677H3.95703V2.48387ZM4.69628 18.25V22.5161C4.69628 22.9259 5.02725 23.258 5.43553 23.258H16.5243C16.9325 23.258 17.2635 22.9259 17.2635 22.5161V18.25H18.0027V22.5161C18.0027 23.3356 17.3408 24 16.5243 24H5.43553C4.61898 24 3.95703 23.3356 3.95703 22.5161V18.25H4.69628Z" fill="#686775" stroke="#686775" stroke-width="0.3"/>
<path fill-rule="evenodd" clip-rule="evenodd" d="M5.80469 3.7868C5.80469 3.2746 6.21841 2.85938 6.72875 2.85938H15.2301C15.7404 2.85938 16.1542 3.2746 16.1542 3.7868H15.4149C15.4149 3.68435 15.3322 3.60131 15.2301 3.60131H6.72875C6.62668 3.60131 6.54394 3.68435 6.54394 3.7868H5.80469ZM6.54394 18.6255V19.553C6.54394 19.9627 6.87491 20.2948 7.28319 20.2948H14.6756C15.084 20.2948 15.4149 19.9627 15.4149 19.553V18.6255H16.1542V19.553C16.1542 20.3724 15.4922 21.0368 14.6756 21.0368H7.28319C6.46664 21.0368 5.80469 20.3724 5.80469 19.553V18.6255H6.54394Z" fill="#686775" stroke="#686775" stroke-width="0.3"/>
<path fill-rule="evenodd" clip-rule="evenodd" d="M2.17132 5.40381C1.94552 5.36496 1.73925 5.53951 1.73925 5.76944V17.0782C1.73925 17.2589 1.86897 17.4133 2.04642 17.4438L10.1679 18.8411C10.7053 18.9337 11.2544 18.9337 11.7918 18.8411L19.9132 17.4438C20.0907 17.4133 20.2204 17.2589 20.2204 17.0782V5.76944C20.2204 5.53951 20.0142 5.36496 19.7883 5.40381L19.1741 5.5095C18.9728 5.54413 18.7818 5.40849 18.7473 5.20655C18.7127 5.00462 18.8479 4.81285 19.0491 4.77824L19.6634 4.67254C20.3408 4.55598 20.9597 5.07964 20.9597 5.76944V17.0782C20.9597 17.6203 20.5705 18.0835 20.0381 18.1751L11.9167 19.5724C11.2966 19.6791 10.6631 19.6791 10.043 19.5724L1.92151 18.1751C1.38916 18.0835 1 17.6203 1 17.0782V5.76944C1 5.07964 1.61882 4.55598 2.29623 4.67254L2.91057 4.77824C3.11177 4.81285 3.24692 5.00462 3.21243 5.20655C3.17794 5.40849 2.98686 5.54413 2.78567 5.5095L2.17132 5.40381Z" fill="#686775" stroke="#686775" stroke-width="0.3"/>
<path fill-rule="evenodd" clip-rule="evenodd" d="M2.47852 4.11323C2.47852 3.41888 3.10508 2.89406 3.78574 3.01827L10.1203 4.1742C10.6887 4.27792 11.271 4.27792 11.8394 4.1742L18.174 3.01827C18.8546 2.89406 19.4812 3.41888 19.4812 4.11323V15.2659C19.4812 15.7965 19.1081 16.2533 18.5898 16.3573L12.0672 17.6665C11.3494 17.8106 10.6103 17.8106 9.89253 17.6665L3.36992 16.3573C2.85161 16.2533 2.47852 15.7965 2.47852 15.2659V4.11323Z" fill="#F48383" stroke="#F48383" stroke-width="0.5"/>
<path fill-rule="evenodd" clip-rule="evenodd" d="M4.00896 6.03904C4.04547 5.83747 4.23789 5.70378 4.43874 5.74042L9.52106 6.66784C9.7219 6.7045 9.85512 6.89761 9.8186 7.09919C9.78208 7.30076 9.58966 7.43447 9.38882 7.39781L4.3065 6.47039C4.10565 6.43375 3.97244 6.24062 4.00896 6.03904Z" fill="#686775" stroke="#686775" stroke-width="0.3"/>
<path fill-rule="evenodd" clip-rule="evenodd" d="M4.00896 8.6328C4.04547 8.43122 4.23789 8.29752 4.43874 8.33417L9.52106 9.26159C9.7219 9.29824 9.85512 9.49136 9.8186 9.69293C9.78208 9.89451 9.58966 10.0282 9.38882 9.99155L4.3065 9.06414C4.10565 9.02749 3.97244 8.83437 4.00896 8.6328Z" fill="#686775" stroke="#686775" stroke-width="0.3"/>
<path fill-rule="evenodd" clip-rule="evenodd" d="M4.00896 11.2265C4.04547 11.025 4.23789 10.8913 4.43874 10.9279L9.52106 11.8554C9.7219 11.892 9.85512 12.0852 9.8186 12.2867C9.78208 12.4883 9.58966 12.622 9.38882 12.5853L4.3065 11.6579C4.10565 11.6213 3.97244 11.4281 4.00896 11.2265Z" fill="#686775" stroke="#686775" stroke-width="0.3"/>
<path fill-rule="evenodd" clip-rule="evenodd" d="M4.00896 13.8203C4.04547 13.6187 4.23789 13.485 4.43874 13.5217L9.52106 14.4491C9.7219 14.4857 9.85512 14.6788 9.8186 14.8805C9.78208 15.082 9.58966 15.2156 9.38882 15.179L4.3065 14.2516C4.10565 14.2149 3.97244 14.0218 4.00896 13.8203Z" fill="#686775" stroke="#686775" stroke-width="0.3"/>
<path fill-rule="evenodd" clip-rule="evenodd" d="M17.9505 6.03904C17.987 6.24062 17.8538 6.43375 17.653 6.47039L12.5706 7.39781C12.3697 7.43447 12.1773 7.30076 12.1408 7.09919C12.1043 6.89761 12.2375 6.7045 12.4384 6.66784L17.5207 5.74042C17.7215 5.70378 17.9139 5.83747 17.9505 6.03904Z" fill="#686775" stroke="#686775" stroke-width="0.3"/>
<path fill-rule="evenodd" clip-rule="evenodd" d="M17.9505 8.6328C17.987 8.83437 17.8538 9.02749 17.653 9.06414L12.5706 9.99155C12.3697 10.0282 12.1773 9.89451 12.1408 9.69293C12.1043 9.49136 12.2375 9.29824 12.4384 9.26159L17.5207 8.33417C17.7215 8.29752 17.9139 8.43122 17.9505 8.6328Z" fill="#686775" stroke="#686775" stroke-width="0.3"/>
<path fill-rule="evenodd" clip-rule="evenodd" d="M17.9505 11.2265C17.987 11.4281 17.8538 11.6213 17.653 11.6579L12.5706 12.5853C12.3697 12.622 12.1773 12.4883 12.1408 12.2867C12.1043 12.0852 12.2375 11.892 12.4384 11.8554L17.5207 10.9279C17.7215 10.8913 17.9139 11.025 17.9505 11.2265Z" fill="#686775" stroke="#686775" stroke-width="0.3"/>
<path fill-rule="evenodd" clip-rule="evenodd" d="M10.98 4.34375C11.1841 4.34375 11.3496 4.51192 11.3496 4.71936V19.3682C11.3496 19.5757 11.1841 19.7437 10.98 19.7437C10.7758 19.7437 10.6104 19.5757 10.6104 19.3682V4.71936C10.6104 4.51192 10.7758 4.34375 10.98 4.34375Z" fill="#686775"/>
<path fill-rule="evenodd" clip-rule="evenodd" d="M9.13184 22.1444C9.13184 21.9396 9.29732 21.7734 9.50145 21.7734H12.4585C12.6626 21.7734 12.828 21.9396 12.828 22.1444C12.828 22.3493 12.6626 22.5154 12.4585 22.5154H9.50145C9.29732 22.5154 9.13184 22.3493 9.13184 22.1444Z" fill="#686775" stroke="#686775" stroke-width="0.3"/>
</svg>
