<svg width="22" height="24" viewBox="0 0 22 24" fill="none" xmlns="http://www.w3.org/2000/svg">
<path d="M0.0479317 14.2327C-0.304805 10.4359 1.3168 6.99671 4.00642 4.81171C5.05483 3.95926 6.62255 4.68923 6.62255 6.03649C6.62255 6.5313 6.38739 6.98692 6.00526 7.29556C4.0995 8.84858 2.95311 11.2981 3.23236 14.0025C3.59489 17.5249 6.41678 20.3762 9.93435 20.7681C14.5248 21.2825 18.4245 17.6866 18.4245 13.199C18.4245 10.818 17.3222 8.68691 15.6026 7.29066C15.2205 6.98202 14.9902 6.5264 14.9902 6.03649C14.9902 4.70393 16.5335 3.94946 17.5721 4.78231C20.0314 6.76646 21.6089 9.79901 21.6089 13.199C21.6089 19.416 16.3277 24.4278 10.0127 23.9722C4.79028 23.6047 0.532944 19.4454 0.0479317 14.2327Z" fill="#686775"/>
<path d="M9.59473 1.59221C9.59473 0.715271 10.3051 0 11.1869 0C12.0688 0 12.7792 0.715271 12.7792 1.59221V8.92619C12.7792 9.80313 12.0639 10.5184 11.1869 10.5184C10.31 10.5184 9.59473 9.80803 9.59473 8.92619V1.59221Z" fill="#F48383"/>
</svg>
