<svg width="18" height="18" viewBox="0 0 18 18" fill="none" xmlns="http://www.w3.org/2000/svg">
<path d="M18 7.89337C18 8.62806 17.4122 9.21582 16.6775 9.21582H16.4571V15.0199C16.4571 16.4342 15.3 17.5913 13.8857 17.5913H11.5714V11.7872C11.5714 10.373 10.4143 9.21582 9 9.21582C7.58571 9.21582 6.42857 10.373 6.42857 11.7872V17.5913H4.11429C2.7 17.5913 1.54286 16.4342 1.54286 15.0199V9.21582H1.32245C0.587755 9.21582 0 8.62806 0 7.89337C0 7.52602 0.165306 7.15867 0.422449 6.9199L7.2551 0.675C8.22857 -0.225 9.73469 -0.225 10.7265 0.675L17.5592 6.9199C17.8531 7.15867 18 7.50765 18 7.89337Z" fill="black" fill-opacity="0.5"/>
</svg>
