<?xml version="1.0" encoding="UTF-8"?>
<svg id="Layer_1" data-name="Layer 1" xmlns="http://www.w3.org/2000/svg" xmlns:xlink="http://www.w3.org/1999/xlink" viewBox="0 0 20 14.63">
  <defs>
    <style>
      .cls-1 {
        fill: #f48382;
      }

      .cls-2, .cls-3 {
        fill: none;
      }

      .cls-3 {
        clip-path: url(#clippath);
      }
    </style>
    <clipPath id="clippath">
      <rect class="cls-2" width="20" height="14.63"/>
    </clipPath>
  </defs>
  <g class="cls-3">
    <path class="cls-1" d="m18.17,3.16c-.85-1.85-2.86-3.16-5.21-3.16h-4.93C3.6,0,0,3.28,0,7.31s3.6,7.31,8.03,7.31h6.13c1.77.01,3.21-1.3,3.21-2.91s-1.44-2.92-3.21-2.92h-5.95c-.89,0-1.61-.66-1.61-1.47s.72-1.47,1.61-1.47h4.93c.44,0,.8-.33.8-.73s-.36-.73-.8-.73h-4.93c-1.77,0-3.21,1.31-3.21,2.92s1.44,2.92,3.21,2.92h5.95c.89,0,1.61.66,1.61,1.47s-.72,1.47-1.61,1.47h-6.13c-3.55-.01-6.44-2.64-6.44-5.87S4.49,1.45,8.04,1.45h4.93c1.57,0,2.94.82,3.61,2.02-.58.36-.96.97-.96,1.66,0,1.1.98,2,2.2,2s2.2-.9,2.2-2c0-.99-.79-1.81-1.83-1.97"/>
  </g>
</svg>