<svg width="34" height="34" viewBox="0 0 34 34" fill="none" xmlns="http://www.w3.org/2000/svg">
<path d="M12.1443 10.9269H13.9657V12.7483C13.9657 12.9093 14.0296 13.0638 14.1435 13.1776C14.2574 13.2915 14.4118 13.3555 14.5728 13.3555H17.0014C17.1624 13.3555 17.3168 13.2915 17.4307 13.1776C17.5446 13.0638 17.6085 12.9093 17.6085 12.7483V10.9269H19.43C19.591 10.9269 19.7454 10.8629 19.8593 10.7491C19.9731 10.6352 20.0371 10.4808 20.0371 10.3198V7.89118C20.0371 7.73016 19.9731 7.57573 19.8593 7.46187C19.7454 7.34801 19.591 7.28404 19.43 7.28404H17.6085V5.46261C17.6085 5.30159 17.5446 5.14716 17.4307 5.0333C17.3168 4.91944 17.1624 4.85547 17.0014 4.85547H14.5728C14.4118 4.85547 14.2574 4.91944 14.1435 5.0333C14.0296 5.14716 13.9657 5.30159 13.9657 5.46261V7.28404H12.1443C11.9832 7.28404 11.8288 7.34801 11.7149 7.46187C11.6011 7.57573 11.5371 7.73016 11.5371 7.89118V10.3198C11.5371 10.4808 11.6011 10.6352 11.7149 10.7491C11.8288 10.8629 11.9832 10.9269 12.1443 10.9269ZM12.7514 8.49832H14.5728C14.7338 8.49832 14.8883 8.43436 15.0021 8.3205C15.116 8.20664 15.18 8.05221 15.18 7.89118V6.06975H16.3942V7.89118C16.3942 8.05221 16.4582 8.20664 16.5721 8.3205C16.6859 8.43436 16.8404 8.49832 17.0014 8.49832H18.8228V9.71261H17.0014C16.8404 9.71261 16.6859 9.77658 16.5721 9.89044C16.4582 10.0043 16.3942 10.1587 16.3942 10.3198V12.1412H15.18V10.3198C15.18 10.1587 15.116 10.0043 15.0021 9.89044C14.8883 9.77658 14.7338 9.71261 14.5728 9.71261H12.7514V8.49832Z" fill="#F48383"/>
<path d="M7.89425 16.9994H23.68C23.841 16.9994 23.9954 16.9355 24.1093 16.8216C24.2231 16.7078 24.2871 16.5533 24.2871 16.3923C24.2871 16.2313 24.2231 16.0768 24.1093 15.963C23.9954 15.8491 23.841 15.7852 23.68 15.7852H7.89425C7.73323 15.7852 7.5788 15.8491 7.46494 15.963C7.35108 16.0768 7.28711 16.2313 7.28711 16.3923C7.28711 16.5533 7.35108 16.7078 7.46494 16.8216C7.5788 16.9355 7.73323 16.9994 7.89425 16.9994Z" fill="#F48383"/>
<path d="M18.8224 18.2148H17.6081C17.4471 18.2148 17.2927 18.2788 17.1788 18.3927C17.0649 18.5065 17.001 18.661 17.001 18.822C17.001 18.983 17.0649 19.1374 17.1788 19.2513C17.2927 19.3652 17.4471 19.4291 17.6081 19.4291H18.8224C18.9834 19.4291 19.1379 19.3652 19.2517 19.2513C19.3656 19.1374 19.4295 18.983 19.4295 18.822C19.4295 18.661 19.3656 18.5065 19.2517 18.3927C19.1379 18.2788 18.9834 18.2148 18.8224 18.2148Z" fill="#F48383"/>
<path d="M15.787 20.6445H10.9299C10.7689 20.6445 10.6144 20.7085 10.5006 20.8224C10.3867 20.9362 10.3228 21.0906 10.3228 21.2517C10.3228 21.4127 10.3867 21.5671 10.5006 21.681C10.6144 21.7949 10.7689 21.8588 10.9299 21.8588H15.787C15.9481 21.8588 16.1025 21.7949 16.2164 21.681C16.3302 21.5671 16.3942 21.4127 16.3942 21.2517C16.3942 21.0906 16.3302 20.9362 16.2164 20.8224C16.1025 20.7085 15.9481 20.6445 15.787 20.6445Z" fill="#F48383"/>
<path d="M7.89425 19.4291H15.18C15.341 19.4291 15.4954 19.3652 15.6093 19.2513C15.7231 19.1374 15.7871 18.983 15.7871 18.822C15.7871 18.661 15.7231 18.5065 15.6093 18.3927C15.4954 18.2788 15.341 18.2148 15.18 18.2148H7.89425C7.73323 18.2148 7.5788 18.2788 7.46494 18.3927C7.35108 18.5065 7.28711 18.661 7.28711 18.822C7.28711 18.983 7.35108 19.1374 7.46494 19.2513C7.5788 19.3652 7.73323 19.4291 7.89425 19.4291Z" fill="#F48383"/>
<path d="M14.5726 23.0703H12.7512C12.5902 23.0703 12.4357 23.1343 12.3219 23.2481C12.208 23.362 12.144 23.5164 12.144 23.6775C12.144 23.8385 12.208 23.9929 12.3219 24.1068C12.4357 24.2206 12.5902 24.2846 12.7512 24.2846H14.5726C14.7336 24.2846 14.8881 24.2206 15.0019 24.1068C15.1158 23.9929 15.1798 23.8385 15.1798 23.6775C15.1798 23.5164 15.1158 23.362 15.0019 23.2481C14.8881 23.1343 14.7336 23.0703 14.5726 23.0703Z" fill="#F48383"/>
<path d="M10.3228 24.2846C10.4838 24.2846 10.6383 24.2206 10.7521 24.1068C10.866 23.9929 10.93 23.8385 10.93 23.6775C10.93 23.5164 10.866 23.362 10.7521 23.2481C10.6383 23.1343 10.4838 23.0703 10.3228 23.0703H7.89425C7.73323 23.0703 7.5788 23.1343 7.46494 23.2481C7.35108 23.362 7.28711 23.5164 7.28711 23.6775C7.28711 23.8385 7.35108 23.9929 7.46494 24.1068C7.5788 24.2206 7.73323 24.2846 7.89425 24.2846H10.3228Z" fill="#F48383"/>
<path d="M7.89425 21.8588H8.50139C8.66242 21.8588 8.81685 21.7949 8.93071 21.681C9.04457 21.5671 9.10854 21.4127 9.10854 21.2517C9.10854 21.0906 9.04457 20.9362 8.93071 20.8224C8.81685 20.7085 8.66242 20.6445 8.50139 20.6445H7.89425C7.73323 20.6445 7.5788 20.7085 7.46494 20.8224C7.35108 20.9362 7.28711 21.0906 7.28711 21.2517C7.28711 21.4127 7.35108 21.5671 7.46494 21.681C7.5788 21.7949 7.73323 21.8588 7.89425 21.8588Z" fill="#F48383"/>
<path d="M13.9655 27.3217H13.1276L12.6844 26.4413C12.6369 26.3465 12.5654 26.2658 12.4769 26.2072C12.3885 26.1486 12.2863 26.1142 12.1805 26.1074C12.0744 26.1017 11.9686 26.1239 11.8738 26.1718C11.779 26.2198 11.6984 26.2918 11.6401 26.3806L11.1848 27.0545L10.9298 25.9617C10.8965 25.827 10.8181 25.7077 10.7077 25.6238C10.5972 25.5398 10.4613 25.4962 10.3226 25.5003C9.31476 25.5003 7.89404 26.4413 7.89404 28.536C7.89404 28.697 7.95801 28.8514 8.07187 28.9653C8.18573 29.0791 8.34016 29.1431 8.50119 29.1431C8.66221 29.1431 8.81664 29.0791 8.9305 28.9653C9.04436 28.8514 9.10833 28.697 9.10833 28.536C9.07088 28.2113 9.1236 27.8826 9.26069 27.5859C9.39778 27.2893 9.61395 27.0361 9.88547 26.8542L10.3408 28.6756C10.3697 28.7893 10.431 28.8922 10.5171 28.9718C10.6032 29.0514 10.7106 29.1044 10.8262 29.1243C10.9418 29.1442 11.0607 29.1302 11.1685 29.084C11.2763 29.0378 11.3684 28.9613 11.4337 28.8638L12.0712 27.9288L12.2108 28.2081C12.2621 28.3071 12.3397 28.3901 12.435 28.4479C12.5303 28.5057 12.6397 28.5362 12.7512 28.536H13.9655C14.1265 28.536 14.2809 28.472 14.3948 28.3581C14.5086 28.2443 14.5726 28.0899 14.5726 27.9288C14.5726 27.7678 14.5086 27.6134 14.3948 27.4995C14.2809 27.3857 14.1265 27.3217 13.9655 27.3217Z" fill="#F48383"/>
<path d="M27.9297 21.2986V5.46429C27.9302 5.38439 27.9149 5.30518 27.8847 5.23121C27.8545 5.15724 27.8099 5.08995 27.7537 5.03322L22.8965 0.176081C22.8398 0.119811 22.7725 0.0752918 22.6985 0.0450776C22.6246 0.0148634 22.5454 -0.000451823 22.4655 1.0148e-05H4.25119C4.09016 1.0148e-05 3.93573 0.0639769 3.82187 0.177838C3.70801 0.2917 3.64404 0.446128 3.64404 0.607153V33.3928C3.64404 33.5539 3.70801 33.7083 3.82187 33.8222C3.93573 33.936 4.09016 34 4.25119 34H23.0726C24.5449 33.9967 25.9816 33.5474 27.1934 32.7114C28.4053 31.8753 29.3354 30.6918 29.8613 29.3166C30.3872 27.9415 30.4841 26.4393 30.1393 25.008C29.7945 23.5767 29.0241 22.2834 27.9297 21.2986ZM23.0726 2.07037L25.8594 4.85715H23.0726V2.07037ZM4.85833 32.7857V1.2143H21.8583V5.46429C21.8583 5.62532 21.9223 5.77975 22.0361 5.89361C22.15 6.00747 22.3044 6.07144 22.4655 6.07144H26.7155V20.4121C25.0789 19.5068 23.1568 19.2656 21.3472 19.7383C19.5377 20.2111 17.9792 21.3616 16.9945 22.9517C16.0099 24.5418 15.6745 26.4497 16.0577 28.2804C16.4409 30.111 17.5135 31.7241 19.0533 32.7857H4.85833ZM23.0726 32.7857C21.8718 32.7857 20.6979 32.4296 19.6995 31.7625C18.7011 31.0954 17.9229 30.1471 17.4633 29.0377C17.0038 27.9283 16.8836 26.7075 17.1178 25.5298C17.3521 24.3521 17.9304 23.2702 18.7795 22.4211C19.6286 21.572 20.7104 20.9938 21.8881 20.7595C23.0659 20.5252 24.2866 20.6455 25.396 21.105C26.5054 21.5645 27.4537 22.3427 28.1208 23.3412C28.7879 24.3396 29.144 25.5135 29.144 26.7143C29.144 28.3245 28.5044 29.8688 27.3658 31.0074C26.2271 32.146 24.6828 32.7857 23.0726 32.7857Z" fill="#686775"/>
<path d="M24.894 24.8912C25.0551 24.8912 25.2095 24.8272 25.3234 24.7134C25.4372 24.5995 25.5012 24.4451 25.5012 24.284C25.5012 23.962 25.3733 23.6531 25.1455 23.4254C24.9178 23.1977 24.6089 23.0698 24.2869 23.0698H23.6798V22.4626C23.6798 22.3016 23.6158 22.1472 23.5019 22.0333C23.3881 21.9194 23.2336 21.8555 23.0726 21.8555C22.9116 21.8555 22.7572 21.9194 22.6433 22.0333C22.5294 22.1472 22.4655 22.3016 22.4655 22.4626V23.0698H21.8583C21.5363 23.0698 21.2274 23.1977 20.9997 23.4254C20.772 23.6531 20.644 23.962 20.644 24.284V26.1055C20.644 26.4275 20.772 26.7364 20.9997 26.9641C21.2274 27.1918 21.5363 27.3198 21.8583 27.3198H24.2869V29.1412H21.8583C21.8583 28.9802 21.7944 28.8257 21.6805 28.7119C21.5666 28.598 21.4122 28.534 21.2512 28.534C21.0902 28.534 20.9357 28.598 20.8219 28.7119C20.708 28.8257 20.644 28.9802 20.644 29.1412C20.644 29.4632 20.772 29.7721 20.9997 29.9998C21.2274 30.2275 21.5363 30.3555 21.8583 30.3555H22.4655V30.9626C22.4655 31.1236 22.5294 31.2781 22.6433 31.3919C22.7572 31.5058 22.9116 31.5697 23.0726 31.5697C23.2336 31.5697 23.3881 31.5058 23.5019 31.3919C23.6158 31.2781 23.6798 31.1236 23.6798 30.9626V30.3555H24.2869C24.6089 30.3555 24.9178 30.2275 25.1455 29.9998C25.3733 29.7721 25.5012 29.4632 25.5012 29.1412V27.3198C25.5012 26.9977 25.3733 26.6888 25.1455 26.4611C24.9178 26.2334 24.6089 26.1055 24.2869 26.1055H21.8583V24.284H24.2869C24.2869 24.4451 24.3509 24.5995 24.4647 24.7134C24.5786 24.8272 24.733 24.8912 24.894 24.8912Z" fill="#F48383"/>
</svg>
