<?xml version="1.0" encoding="UTF-8"?>
<svg id="Layer_1" data-name="Layer 1" xmlns="http://www.w3.org/2000/svg" width="352.3" height="45.75" viewBox="0 0 352.3 45.75">
  <defs>
    <style>
      .cls-1 {
        fill: #fff;
      }

      .cls-1, .cls-2 {
        stroke-width: 0px;
      }

      .cls-2 {
        fill: #ea5d5e;
      }
    </style>
  </defs>
  <path class="cls-1" d="m79.56,36.19c-4.97,0-8.84-1.14-11.62-3.41s-4.17-5.53-4.17-9.76c0-2.64.63-4.96,1.9-6.98,1.27-2.01,3.09-3.58,5.46-4.71,2.37-1.13,5.14-1.69,8.32-1.69,2.35,0,4.35.21,5.99.63,1.64.42,3.17,1.09,4.59,2.03.34.21.5.43.5.68,0,.21-.09.45-.28.73l-1.51,2.45c-.22.35-.43.52-.62.52s-.45-.1-.78-.31c-1.16-.66-2.31-1.15-3.44-1.48-1.14-.33-2.49-.49-4.06-.49-2.8,0-5,.77-6.61,2.32-1.61,1.54-2.41,3.65-2.41,6.33,0,2.81.8,4.92,2.41,6.33,1.61,1.41,3.96,2.11,7.06,2.11,1.57,0,2.93-.17,4.09-.52,1.16-.35,2.28-.85,3.36-1.51.3-.17.54-.26.73-.26.22,0,.45.17.67.52l1.62,2.55c.15.17.22.36.22.57,0,.24-.19.49-.56.73-1.49.9-3.1,1.57-4.82,2-1.72.43-3.73.65-6.05.65h0Z"/>
  <path class="cls-1" d="m107.4,36.19c-3.66,0-6.57-1.03-8.74-3.1-2.17-2.07-3.25-4.97-3.25-8.72,0-2.92.69-5.49,2.07-7.73,1.38-2.24,3.35-3.97,5.91-5.18,2.56-1.22,5.54-1.82,8.93-1.82,4.74,0,8.76,1.04,12.04,3.12v21.25c0,.52-.12.89-.36,1.09-.24.21-.66.31-1.26.31h-3.08c-.41,0-.72-.08-.92-.23-.21-.16-.35-.41-.42-.76l-.45-2.03c-1.16,1.32-2.59,2.28-4.28,2.89s-3.76.91-6.19.91h0Zm2.69-4.74c1.98,0,3.72-.54,5.24-1.61,1.51-1.08,2.27-2.5,2.27-4.27v-10.16c-.78-.38-1.58-.65-2.38-.81s-1.78-.23-2.94-.23c-2.95,0-5.32.87-7.11,2.6-1.79,1.74-2.69,4.13-2.69,7.19,0,2.5.63,4.34,1.88,5.52,1.25,1.18,3.16,1.77,5.74,1.77h0Z"/>
  <path class="cls-1" d="m133.05,35.41c-.75,0-1.28-.16-1.6-.47-.32-.31-.48-.78-.48-1.41V1.93c0-.66.16-1.15.48-1.46.32-.31.85-.47,1.6-.47h2.97c.75,0,1.29.16,1.62.47.34.31.5.8.5,1.46v31.61c0,.62-.16,1.09-.48,1.41-.32.31-.87.47-1.65.47h-2.97Z"/>
  <path class="cls-1" d="m146.88,35.41c-.75,0-1.29-.16-1.62-.47-.34-.31-.5-.78-.5-1.41V11.82c0-.52.09-.89.28-1.09.19-.21.58-.31,1.18-.31h2.97c.41,0,.71.08.9.23.19.16.3.43.34.81l.17,2.19c1.08-1.28,2.32-2.27,3.72-2.97,1.4-.69,3.07-1.04,5.01-1.04,1.64,0,3.07.34,4.28,1.02,1.21.68,2.1,1.67,2.66,2.99,2.05-2.67,5.02-4.01,8.9-4.01,2.65,0,4.75.75,6.3,2.24,1.55,1.49,2.32,3.71,2.32,6.67v15c0,.62-.16,1.09-.48,1.41-.32.31-.87.47-1.65.47h-2.46c-.75,0-1.29-.16-1.62-.47-.34-.31-.5-.78-.5-1.41v-14.63c0-1.6-.36-2.74-1.09-3.44-.73-.69-1.82-1.04-3.28-1.04-1.53,0-2.77.47-3.72,1.41-.95.94-1.43,2.2-1.43,3.8v13.9c0,.62-.17,1.09-.5,1.41-.34.31-.88.47-1.62.47h-2.3c-.75,0-1.29-.16-1.62-.47-.34-.31-.5-.78-.5-1.41v-14.89c0-1.46-.33-2.53-.98-3.2-.65-.68-1.69-1.02-3.11-1.02-1.61,0-2.91.49-3.92,1.48-1.01.99-1.51,2.28-1.51,3.88v13.75c0,.62-.16,1.09-.48,1.41-.32.31-.87.47-1.65.47h-2.46Z"/>
  <path class="cls-1" d="m201.76,36.19c-2.24,0-4.42-.22-6.55-.65-2.13-.43-3.96-1.08-5.49-1.95-.49-.24-.73-.5-.73-.78,0-.21.07-.4.22-.57l1.57-2.55c.19-.31.37-.47.56-.47s.43.09.73.26c1.12.63,2.5,1.15,4.14,1.56,1.64.42,3.15.63,4.54.63,2.13,0,3.65-.2,4.56-.6.92-.4,1.37-1.12,1.37-2.16,0-.59-.18-1.07-.53-1.43-.35-.36-.89-.69-1.6-.96-.71-.28-1.89-.66-3.53-1.15,0,0-.62-.19-1.85-.57-2.13-.66-3.83-1.3-5.1-1.93-1.27-.62-2.25-1.41-2.94-2.37-.69-.96-1.04-2.16-1.04-3.62,0-2.36,1.07-4.16,3.22-5.39,2.15-1.23,4.94-1.85,8.37-1.85,4.18,0,7.78.83,10.81,2.5.49.24.73.5.73.78,0,.17-.09.4-.28.68l-1.51,2.24c-.22.31-.41.47-.56.47s-.37-.09-.67-.26c-.97-.56-2.14-1-3.5-1.33-1.36-.33-2.73-.49-4.12-.49-1.87,0-3.24.18-4.12.55-.88.36-1.32,1.07-1.32,2.11,0,.9.51,1.61,1.54,2.13,1.03.52,2.81,1.15,5.35,1.87l1.85.52c2.91.87,4.96,1.89,6.13,3.07,1.18,1.18,1.76,2.66,1.76,4.43,0,2.15-1.02,3.91-3.05,5.26-2.03,1.35-5.03,2.03-8.99,2.03h0Z"/>
  <path class="cls-1" d="m232.57,36.19c-4.97,0-8.84-1.14-11.62-3.41s-4.17-5.53-4.17-9.76c0-2.64.63-4.96,1.9-6.98,1.27-2.01,3.09-3.58,5.46-4.71,2.37-1.13,5.14-1.69,8.32-1.69,2.35,0,4.35.21,5.99.63,1.64.42,3.17,1.09,4.59,2.03.34.21.5.43.5.68,0,.21-.09.45-.28.73l-1.51,2.45c-.22.35-.43.52-.62.52s-.45-.1-.78-.31c-1.16-.66-2.31-1.15-3.44-1.48-1.14-.33-2.49-.49-4.06-.49-2.8,0-5,.77-6.61,2.32-1.61,1.54-2.41,3.65-2.41,6.33,0,2.81.8,4.92,2.41,6.33s3.96,2.11,7.06,2.11c1.57,0,2.93-.17,4.09-.52,1.16-.35,2.28-.85,3.36-1.51.3-.17.54-.26.73-.26.22,0,.45.17.67.52l1.62,2.55c.15.17.22.36.22.57,0,.24-.19.49-.56.73-1.49.9-3.1,1.57-4.82,2-1.72.43-3.73.65-6.05.65h0Z"/>
  <path class="cls-1" d="m252.33,6.09c-.9,0-1.59-.24-2.07-.73-.49-.49-.73-1.08-.73-1.77v-1.09c0-.69.24-1.28.73-1.77C250.75.24,251.44,0,252.33,0h2.41c.9,0,1.6.24,2.1.73.5.49.76,1.08.76,1.77v1.09c0,.69-.25,1.28-.76,1.77-.5.49-1.2.73-2.1.73h-2.41Zm-.22,29.32c-.75,0-1.29-.16-1.62-.47-.34-.31-.5-.78-.5-1.41V12.34c0-.66.17-1.15.5-1.46.34-.31.88-.47,1.62-.47h2.91c.75,0,1.29.16,1.62.47.34.31.5.8.5,1.46v21.2c0,.62-.16,1.09-.48,1.41-.32.31-.87.47-1.65.47h-2.91Z"/>
  <path class="cls-1" d="m278.71,36.19c-2.91,0-5.54-.46-7.9-1.38-2.35-.92-4.23-2.34-5.63-4.27s-2.1-4.33-2.1-7.21c0-4.48,1.29-7.88,3.86-10.21,2.58-2.33,6.24-3.49,10.98-3.49s8.26,1.13,10.67,3.39c2.41,2.26,3.61,5.52,3.61,9.79,0,1.22-.6,1.82-1.79,1.82h-20.55c0,2.29.86,4.05,2.58,5.29,1.72,1.23,4.11,1.85,7.17,1.85s5.6-.63,7.95-1.87c.26-.14.47-.21.62-.21.26,0,.47.16.62.47l1.34,2.24c.11.21.17.4.17.57,0,.24-.17.47-.5.68-1.53.87-3.18,1.51-4.96,1.93-1.77.42-3.82.62-6.13.62h0Zm7-15.41c0-2.15-.64-3.84-1.93-5.05-1.29-1.22-3.22-1.82-5.8-1.82s-4.62.63-6.02,1.87c-1.4,1.25-2.1,2.92-2.1,5h15.85Z"/>
  <path class="cls-1" d="m299.83,35.41c-.75,0-1.29-.16-1.62-.47-.34-.31-.5-.78-.5-1.41V11.82c0-.52.09-.89.28-1.09.19-.21.58-.31,1.18-.31h3.19c.82,0,1.25.35,1.29,1.04l.11,2.08c2.54-2.6,6.18-3.91,10.92-3.91,3.02,0,5.46.76,7.31,2.27,1.85,1.51,2.77,3.78,2.77,6.8v14.84c0,.62-.16,1.09-.48,1.41-.32.31-.85.47-1.6.47h-2.97c-.75,0-1.29-.16-1.62-.47-.34-.31-.5-.78-.5-1.41v-14.43c0-1.7-.42-2.91-1.26-3.62-.84-.71-2.19-1.07-4.06-1.07-1.98,0-3.71.49-5.18,1.48-1.47.99-2.21,2.27-2.21,3.83v13.8c0,.62-.16,1.09-.48,1.41-.32.31-.87.47-1.65.47h-2.91Z"/>
  <path class="cls-1" d="m343.45,36.19c-3.17,0-5.56-.82-7.17-2.45-1.61-1.63-2.41-3.89-2.41-6.77v-11.67h-3.19c-.75,0-1.24-.12-1.48-.36-.24-.24-.36-.69-.36-1.35v-1.41c0-.66.12-1.12.36-1.38.24-.26.74-.39,1.48-.39h3.19v-2.86c0-.73.14-1.41.42-2.06.28-.64.72-1.45,1.32-2.42.22-.42.44-.69.64-.81.21-.12.57-.18,1.09-.18h1.85c.67,0,1.15.15,1.43.44.28.3.42.74.42,1.33v6.56h6.61c.75,0,1.24.13,1.48.39.24.26.36.72.36,1.38v1.41c0,.66-.12,1.11-.36,1.35-.24.24-.74.36-1.48.36h-6.61v11.46c0,1.6.3,2.75.9,3.46.6.71,1.62,1.07,3.08,1.07.86,0,1.59-.1,2.18-.29.6-.19,1.25-.51,1.96-.96.19-.14.39-.21.62-.21s.45.16.67.47l1.62,2.5c.15.17.22.36.22.57,0,.24-.19.49-.56.73-2.31,1.39-5.08,2.08-8.29,2.08h0Z"/>
  <path class="cls-2" d="m52.34,9.88c-2.45-5.79-8.25-9.88-15-9.88h-14.19C10.38,0,0,10.25,0,22.86s10.38,22.86,23.14,22.86l17.65.03c5.1,0,9.25-4.1,9.25-9.14s-4.15-9.14-9.25-9.14h-17.13c-2.56,0-4.64-2.06-4.64-4.59s2.08-4.59,4.64-4.59h14.19c1.27,0,2.3-1.02,2.3-2.27s-1.03-2.27-2.3-2.27h-14.19c-5.1,0-9.25,4.1-9.25,9.14s4.15,9.14,9.25,9.14h17.13c2.56,0,4.65,2.06,4.65,4.59s-2.08,4.59-4.64,4.59l-17.65-.03c-10.22,0-18.54-8.21-18.54-18.31S12.92,4.55,23.15,4.55h14.19c4.53,0,8.47,2.57,10.39,6.32-1.68,1.13-2.78,3.02-2.78,5.18,0,3.45,2.84,6.25,6.33,6.25s6.33-2.8,6.33-6.25c0-3.1-2.28-5.67-5.28-6.17"/>
</svg>