<?xml version="1.0" encoding="UTF-8"?>
<svg id="Layer_1_copy" data-name="Layer 1 copy" xmlns="http://www.w3.org/2000/svg" width="20" height="17.22" viewBox="0 0 20 17.22">
  <defs>
    <style>
      .cls-1 {
        fill: #6e6bb3;
        stroke-width: 0px;
      }
    </style>
  </defs>
  <path class="cls-1" d="m1.11,2.22C.44,2.22,0,1.78,0,1.11,0,.44.44,0,1.11,0h17.78c.67,0,1.11.44,1.11,1.11,0,.67-.44,1.11-1.11,1.11H1.12s-.01,0-.01,0Z"/>
  <path class="cls-1" d="m.01,6.11c0-.67.4-1.11,1-1.11h8c.6,0,1,.44,1,1.11s-.4,1.11-1,1.11H1.01c-.6,0-1-.44-1-1.11Z"/>
  <path class="cls-1" d="m.01,11.11c0-.67.4-1.11,1-1.11h8c.6,0,1,.44,1,1.11s-.4,1.11-1,1.11H1.01c-.6,0-1-.44-1-1.11Z"/>
  <path class="cls-1" d="m1.11,17.22c-.67,0-1.11-.44-1.11-1.11,0-.67.44-1.11,1.11-1.11h17.78c.67,0,1.11.44,1.11,1.11,0,.67-.44,1.11-1.11,1.11H1.11Z"/>
  <path class="cls-1" d="m19.15,9.36c.61-.3.61-1.16,0-1.46l-5.82-2.85c-.54-.27-1.17.13-1.17.73v5.71c0,.6.63.99,1.17.73l5.82-2.85h0Z"/>
</svg>