<?xml version="1.0" encoding="UTF-8"?>
<svg id="Layer_1_copy" data-name="Layer 1 copy" xmlns="http://www.w3.org/2000/svg" width="20" height="17.22" viewBox="0 0 20 17.22">
  <defs>
    <style>
      .cls-1 {
        fill: #6e6bb3;
        stroke-width: 0px;
      }
    </style>
  </defs>
  <path class="cls-1" d="m18.88,2.22H1.11c-.67,0-1.11-.44-1.11-1.11S.44,0,1.11,0h17.78c.67,0,1.11.44,1.11,1.11s-.44,1.11-1.11,1.11h-.01Z"/>
  <path class="cls-1" d="m18.99,7.22h-8c-.6,0-1-.44-1-1.11s.4-1.11,1-1.11h8c.6,0,1,.44,1,1.11s-.4,1.11-1,1.11Z"/>
  <path class="cls-1" d="m18.99,12.22h-8c-.6,0-1-.44-1-1.11s.4-1.11,1-1.11h8c.6,0,1,.44,1,1.11s-.4,1.11-1,1.11Z"/>
  <path class="cls-1" d="m18.88,17.22H1.11c-.67,0-1.11-.44-1.11-1.11s.44-1.11,1.11-1.11h17.78c.67,0,1.11.44,1.11,1.11s-.44,1.11-1.11,1.11h-.01Z"/>
  <path class="cls-1" d="m.85,9.37l5.82,2.85c.54.26,1.17-.13,1.17-.73v-5.71c0-.6-.63-1-1.17-.73L.85,7.9c-.61.3-.61,1.16,0,1.46h0Z"/>
</svg>