<svg width="21" height="24" viewBox="0 0 21 24" fill="none" xmlns="http://www.w3.org/2000/svg">
<path d="M12.4966 2.05464V3.19663L12.2044 3.12717C11.015 2.84886 9.77743 2.84886 8.58808 3.12717L8.2959 3.19663V2.05464C8.32061 0.895447 9.28033 -0.0242279 10.4395 0.000486674C11.564 0.0244472 12.4697 0.930257 12.4937 2.05464H12.4966Z" fill="#F48383"/>
<path d="M13.7276 21.043L13.6696 21.3285C13.2991 23.1357 11.5337 24.3005 9.72648 23.93C8.41685 23.6615 7.39342 22.6381 7.12495 21.3285L7.06689 21.043H13.7276Z" fill="#F48383"/>
<path d="M20.7997 20.2783H0L3.26232 15.9329C3.31133 15.8665 3.33798 15.7862 3.33848 15.7036V10.7349C3.33806 6.8345 6.49964 3.67225 10.4001 3.67188C14.3005 3.67146 17.4627 6.83304 17.4631 10.7335V10.7349V15.7036C17.4629 15.7863 17.4896 15.8668 17.5392 15.9329L20.7997 20.2783Z" fill="#686775"/>
</svg>
