<?xml version="1.0" encoding="UTF-8"?>
<svg id="Layer_2" data-name="Layer 2" xmlns="http://www.w3.org/2000/svg" viewBox="0 0 20 20">
  <defs>
    <style>
      .cls-1 {
        fill: #696876;
      }

      .cls-1, .cls-2 {
        fill-rule: evenodd;
      }

      .cls-2 {
        fill: #f48382;
      }
    </style>
  </defs>
  <path class="cls-1" d="m9.36.71c-1.74,0-3.15,1.44-3.15,3.21s1.41,3.21,3.15,3.21,3.15-1.44,3.15-3.21-1.41-3.21-3.15-3.21Zm-3.85,3.21c0-2.17,1.72-3.93,3.85-3.93s3.85,1.76,3.85,3.93-1.72,3.93-3.85,3.93-3.85-1.76-3.85-3.93Z"/>
  <path class="cls-1" d="m6.92,10c-1.55,0-2.8,1.28-2.8,2.86v4.29c0,1.18.94,2.14,2.1,2.14h6.3c1.16,0,2.1-.96,2.1-2.14v-4.29c0-1.58-1.25-2.86-2.8-2.86h-1.05c-.19,0-.35-.16-.35-.36s.16-.36.35-.36h1.05c1.93,0,3.5,1.6,3.5,3.57v4.29c0,1.58-1.25,2.86-2.8,2.86h-6.3c-1.55,0-2.8-1.28-2.8-2.86v-4.29c0-1.97,1.57-3.57,3.5-3.57h1.05c.19,0,.35.16.35.36s-.16.36-.35.36h-1.05Z"/>
  <path class="cls-2" d="m11.81,11.43c.19,0,.35.16.35.36v2.14c0,.2-.16.36-.35.36s-.35-.16-.35-.36v-2.14c0-.2.16-.36.35-.36Z"/>
  <path class="cls-2" d="m10.41,12.86c0-.2.16-.36.35-.36h2.1c.19,0,.35.16.35.36s-.16.36-.35.36h-2.1c-.19,0-.35-.16-.35-.36Z"/>
</svg>