<svg width="22" height="24" viewBox="0 0 22 24" fill="none" xmlns="http://www.w3.org/2000/svg">
<path d="M10.743 0C7.31443 0 4.51172 2.80271 4.51172 6.2313C4.51172 9.65989 7.31443 12.4626 10.743 12.4626C14.1716 12.4626 16.9743 9.65989 16.9743 6.2313C16.9743 2.80271 14.1716 0 10.743 0Z" fill="#686775"/>
<path d="M21.437 17.444C21.2737 17.0358 21.056 16.6549 20.8111 16.3011C19.5594 14.4508 17.6275 13.2263 15.4506 12.927C15.1785 12.8998 14.8792 12.9541 14.6615 13.1174C13.5187 13.961 12.1581 14.3963 10.7431 14.3963C9.32813 14.3963 7.96761 13.961 6.82475 13.1174C6.60704 12.9541 6.30772 12.8725 6.03564 12.927C3.85876 13.2263 1.8996 14.4508 0.675118 16.3011C0.430222 16.6549 0.212514 17.063 0.0492851 17.444C-0.0323294 17.6073 -0.00514195 17.7977 0.0764726 17.961C0.294181 18.3419 0.566264 18.7229 0.81116 19.0494C1.1921 19.5665 1.60027 20.029 2.06288 20.4644C2.44381 20.8453 2.87918 21.1991 3.3146 21.5528C5.46423 23.1583 8.04928 24.0018 10.7159 24.0018C13.3826 24.0018 15.9677 23.1582 18.1173 21.5528C18.5527 21.2263 18.988 20.8453 19.369 20.4644C19.8044 20.029 20.2397 19.5664 20.6207 19.0494C20.8928 18.6957 21.1378 18.3419 21.3554 17.961C21.4914 17.7977 21.5186 17.6072 21.437 17.444Z" fill="#F48383"/>
</svg>
