<?xml version="1.0" encoding="UTF-8"?>
<svg id="Layer_7" data-name="Layer 7" xmlns="http://www.w3.org/2000/svg" viewBox="0 0 20.04 20.3">
  <defs>
    <style>
      .cls-1 {
        fill: #696876;
        stroke: #696876;
      }

      .cls-1, .cls-2 {
        stroke-width: .3px;
      }

      .cls-3 {
        stroke-width: .1px;
      }

      .cls-3, .cls-2 {
        fill: #f48382;
        stroke: #f48382;
      }
    </style>
  </defs>
  <path class="cls-1" d="m16.05,2.71h-2.55c-.04-.35-.21-.68-.48-.94-.31-.29-.72-.45-1.15-.45h-.29c-.18-.67-.83-1.17-1.59-1.17s-1.41.5-1.59,1.17h-.29c-.84,0-1.54.61-1.63,1.39h-2.55c-.65,0-1.17.53-1.17,1.17v15.09c0,.65.53,1.17,1.17,1.17h12.11c.65,0,1.17-.53,1.17-1.17V3.88c0-.65-.53-1.17-1.17-1.17Zm-7.93-.61h.62c.22,0,.39-.17.39-.39,0-.43.39-.78.86-.78s.86.35.86.78c0,.22.17.39.39.39h.62c.23,0,.45.08.62.24.16.15.24.34.24.54,0,.05,0,.09-.01.14-.07.37-.43.64-.85.64h-3.75c-.23,0-.45-.08-.62-.24-.08-.08-.15-.17-.19-.27,0-.02-.01-.04-.02-.05,0,0,0-.02,0-.03,0,0,0-.02,0-.03,0,0,0-.02,0-.03,0,0,0,0,0,0,0-.05-.01-.09-.01-.14,0-.43.39-.78.86-.78Zm8.32,16.87c0,.22-.18.39-.39.39H3.95c-.22,0-.39-.18-.39-.39V3.88c0-.22.18-.39.39-.39h2.67c.08.19.21.36.36.51.31.29.72.45,1.15.45h3.75c.62,0,1.27-.36,1.51-.96h2.67c.22,0,.39.18.39.39v15.09Z"/>
  <path class="cls-3" d="m8.27,10.72h-1.63c-.22,0-.39-.17-.39-.39v-.75h-.75c-.22,0-.39-.17-.39-.39v-1.63c0-.22.17-.39.39-.39h.75v-.75c0-.22.17-.39.39-.39h1.63c.22,0,.39.17.39.39v.75h.75c.22,0,.39.17.39.39v1.63c0,.22-.17.39-.39.39h-.75v.75c0,.22-.17.39-.39.39Zm-1.24-.78h.85v-.75c0-.22.18-.39.39-.39h.75v-.85h-.75c-.22,0-.39-.17-.39-.39v-.75h-.85v.75c0,.22-.17.39-.39.39h-.75v.85h.75c.22,0,.39.17.39.39v.75Z"/>
  <path class="cls-2" d="m14.49,13.06h-7.42c-.22,0-.39-.17-.39-.39s.17-.39.39-.39h7.42c.22,0,.39.17.39.39s-.17.39-.39.39Z"/>
  <path class="cls-2" d="m5.51,13.06c-.22,0-.39-.17-.39-.39s.17-.39.39-.39h0c.22,0,.39.17.39.39s-.17.39-.39.39Z"/>
  <path class="cls-2" d="m14.49,15.41H5.51c-.22,0-.39-.17-.39-.39s.17-.39.39-.39h8.98c.22,0,.39.17.39.39s-.17.39-.39.39Z"/>
  <path class="cls-2" d="m14.49,17.76H5.51c-.22,0-.39-.17-.39-.39s.17-.39.39-.39h8.98c.22,0,.39.17.39.39s-.17.39-.39.39Z"/>
</svg>