<svg width="20" height="20" viewBox="0 0 20 20" fill="none" xmlns="http://www.w3.org/2000/svg">
<g clip-path="url(#clip0_432_16797)">
<path d="M19.4141 9.41406C19.0905 9.41406 18.8281 9.67641 18.8281 10C18.8281 14.8679 14.8679 18.8281 10 18.8281C5.13215 18.8281 1.17188 14.8679 1.17188 10C1.17188 5.13215 5.13215 1.17188 10 1.17188C11.9601 1.17188 13.8223 1.80687 15.3528 2.97863L14.3359 3.15832C14.0172 3.21461 13.8045 3.51859 13.8608 3.83727C13.9171 4.15594 14.2211 4.36863 14.5398 4.3123L16.7587 3.92023C17.0386 3.87078 17.2427 3.6275 17.2427 3.34324V1.12434C17.2427 0.800742 16.9803 0.538398 16.6567 0.538398C16.3331 0.538398 16.0708 0.800742 16.0708 1.12434V2.0523C14.3357 0.721367 12.2234 0 10 0C7.32891 0 4.8177 1.0402 2.92891 2.92891C1.0402 4.8177 0 7.32891 0 10C0 12.6711 1.0402 15.1823 2.92891 17.0711C4.8177 18.9598 7.32891 20 10 20C12.6711 20 15.1823 18.9598 17.0711 17.0711C18.9598 15.1823 20 12.6711 20 10C20 9.67641 19.7377 9.41406 19.4141 9.41406Z" fill="white"/>
<path d="M13.125 7.65625V6.67969C13.125 4.95656 11.7231 3.55469 10 3.55469C8.27688 3.55469 6.875 4.95656 6.875 6.67969V7.65625H8.04688V6.67969C8.04688 5.60273 8.92305 4.72656 10 4.72656C11.077 4.72656 11.9531 5.60273 11.9531 6.67969V7.65625H13.125Z" fill="white"/>
<path d="M5.89844 9.41406V14.2969C5.89844 14.6205 6.16078 14.8828 6.48438 14.8828H13.5156C13.8392 14.8828 14.1016 14.6205 14.1016 14.2969V9.41406C14.1016 9.09047 13.8392 8.82812 13.5156 8.82812H6.48438C6.16078 8.82812 5.89844 9.09047 5.89844 9.41406ZM9.60938 10.9766H10.3906C10.7142 10.9766 10.9766 11.2389 10.9766 11.5625C10.9766 11.8861 10.7142 12.1484 10.3906 12.1484H9.60938C9.28578 12.1484 9.02344 11.8861 9.02344 11.5625C9.02344 11.2389 9.28578 10.9766 9.60938 10.9766Z" fill="white"/>
</g>
<defs>
<clipPath id="clip0_432_16797">
<rect width="20" height="20" fill="white"/>
</clipPath>
</defs>
</svg>
