<?xml version="1.0" encoding="UTF-8"?>
<svg id="Layer_4" data-name="Layer 4" xmlns="http://www.w3.org/2000/svg" viewBox="0 0 20 20.01">
  <defs>
    <style>
      .cls-1 {
        fill: #696876;
      }

      .cls-1, .cls-2 {
        fill-rule: evenodd;
      }

      .cls-2 {
        fill: #f48382;
      }
    </style>
  </defs>
  <path class="cls-2" d="m1.9,3.55c0-.71.58-1.29,1.29-1.29h2.12c.18,0,.32.14.32.32s-.14.32-.32.32h-2.12c-.36,0-.65.29-.65.65v3.74c0,.24.13.46.34.57l2.87,1.53c.16.08.22.28.13.44-.08.16-.28.22-.44.13l-2.87-1.53c-.42-.22-.68-.66-.68-1.14v-3.74Zm12.4-.97c0-.18.14-.32.32-.32h2.12c.71,0,1.29.58,1.29,1.29v3.74c0,.48-.26.91-.68,1.14l-2.87,1.53c-.16.08-.35.02-.44-.13-.08-.16-.02-.35.13-.44l2.87-1.53c.21-.11.34-.33.34-.57v-3.74c0-.36-.29-.65-.65-.65h-2.12c-.18,0-.32-.14-.32-.32Z"/>
  <path class="cls-1" d="m6.74.65c-.53,0-.97.43-.97.97v6.45c0,2.32,1.88,4.19,4.19,4.19s4.19-1.88,4.19-4.19V1.61c0-.53-.43-.97-.97-.97h-6.45Zm0-.65c-.89,0-1.61.72-1.61,1.61v6.45c0,2.67,2.17,4.84,4.84,4.84s4.84-2.17,4.84-4.84V1.61c0-.89-.72-1.61-1.61-1.61h-6.45Z"/>
  <path class="cls-1" d="m9.96,12.26c.18,0,.32.14.32.32v3.55c0,.18-.14.32-.32.32s-.32-.14-.32-.32v-3.55c0-.18.14-.32.32-.32Z"/>
  <path class="cls-1" d="m6.42,17.74c0-.89.72-1.61,1.61-1.61h3.87c.89,0,1.61.72,1.61,1.61v1.94c0,.18-.14.32-.32.32h-6.45c-.18,0-.32-.14-.32-.32v-1.94Zm1.61-.97c-.53,0-.97.43-.97.97v1.61h5.81v-1.61c0-.53-.43-.97-.97-.97h-3.87Z"/>
  <path class="cls-1" d="m4.48,19.68c0-.18.14-.32.32-.32h10.32c.18,0,.32.14.32.32s-.14.32-.32.32H4.8c-.18,0-.32-.14-.32-.32Z"/>
  <path class="cls-2" d="m9.39,3.35c.24-.48.92-.48,1.16,0l.49.99,1.09.16c.53.08.74.73.36,1.1l-.79.77.19,1.09c.09.53-.46.93-.94.68l-.98-.51-.98.51c-.47.25-1.03-.15-.94-.68l.19-1.09-.79-.77c-.38-.37-.17-1.02.36-1.1l1.09-.16.49-.99Zm.58.29l-.49.99c-.09.19-.28.32-.49.35l-1.09.16.79.77c.15.15.22.36.19.57l-.19,1.09.98-.51c.19-.1.41-.1.6,0l.98.51-.19-1.09c-.04-.21.03-.42.19-.57l.79-.77-1.09-.16c-.21-.03-.39-.16-.49-.35l-.49-.99Z"/>
</svg>