<?xml version="1.0" encoding="UTF-8"?>
<svg id="Layer_5" data-name="Layer 5" xmlns="http://www.w3.org/2000/svg" viewBox="0 0 20 20.01">
  <defs>
    <style>
      .cls-1 {
        fill: #696876;
      }

      .cls-1, .cls-2 {
        fill-rule: evenodd;
      }

      .cls-2 {
        fill: #f48382;
      }
    </style>
  </defs>
  <path class="cls-2" d="m7.03,3.67c0-.18.15-.33.33-.33h5.34c.18,0,.33.15.33.33s-.15.33-.33.33h-5.34c-.18,0-.33-.15-.33-.33Z"/>
  <path class="cls-2" d="m7.03,5.67c0-.18.15-.33.33-.33h5.34c.18,0,.33.15.33.33s-.15.33-.33.33h-5.34c-.18,0-.33-.15-.33-.33Z"/>
  <path class="cls-2" d="m7.03,7.67c0-.18.15-.33.33-.33h5.34c.18,0,.33.15.33.33s-.15.33-.33.33h-5.34c-.18,0-.33-.15-.33-.33Z"/>
  <path class="cls-2" d="m7.03,9.67c0-.18.15-.33.33-.33h5c.18,0,.33.15.33.33s-.15.33-.33.33h-5c-.18,0-.33-.15-.33-.33Z"/>
  <path class="cls-2" d="m7.03,11.67c0-.18.15-.33.33-.33h3.84c.18,0,.33.15.33.33s-.15.33-.33.33h-3.84c-.18,0-.33-.15-.33-.33Z"/>
  <path class="cls-2" d="m7.03,17c0-.18.15-.33.33-.33h2.17c.18,0,.33.15.33.33s-.15.33-.33.33h-2.17c-.18,0-.33-.15-.33-.33Z"/>
  <path class="cls-1" d="m4.83.39C5.08.14,5.42,0,5.78,0h7.92c.74,0,1.33.6,1.33,1.33v4.5c0,.18-.15.33-.33.33s-.33-.15-.33-.33V1.33c0-.37-.3-.67-.67-.67h-7.92c-.18,0-.35.07-.47.2l-3.42,3.41c-.13.13-.2.29-.2.47v13.92c0,.37.3.67.67.67h11.34c.37,0,.67-.3.67-.67v-9c0-.18.15-.33.33-.33s.33.15.33.33v9c0,.74-.6,1.33-1.33,1.33H2.36c-.74,0-1.33-.6-1.33-1.33V4.75c0-.35.14-.69.39-.94l1.87-1.87,1.54-1.54Z"/>
  <path class="cls-1" d="m17.95,2.08c-.28-.16-.63-.07-.79.21l-6.84,11.83-.76,2.47,1.76-1.89,6.84-11.83c.16-.28.07-.63-.21-.79Zm.33-.58c.6.34.8,1.11.46,1.7l-6.84,11.83s-.06.08-.09.12l-1.76,1.89c-.48.52-1.33.03-1.13-.65l.76-2.47s.03-.09.06-.14L16.58,1.96c.34-.6,1.11-.8,1.7-.46Z"/>
  <path class="cls-2" d="m3.03,15.33c0-.37.3-.67.67-.67h1.33c.37,0,.67.3.67.67v1.33c0,.37-.3.67-.67.67h-1.33c-.37,0-.67-.3-.67-.67v-1.33Zm2,0h-1.33v1.33h1.33v-1.33Z"/>
  <path class="cls-2" d="m3.03,11.33c0-.37.3-.67.67-.67h1.33c.37,0,.67.3.67.67v1.33c0,.37-.3.67-.67.67h-1.33c-.37,0-.67-.3-.67-.67v-1.33Zm2,0h-1.33v1.33h1.33v-1.33Z"/>
  <path class="cls-2" d="m3.03,7.33c0-.37.3-.67.67-.67h1.33c.37,0,.67.3.67.67v1.33c0,.37-.3.67-.67.67h-1.33c-.37,0-.67-.3-.67-.67v-1.33Zm2,0h-1.33v1.33h1.33v-1.33Z"/>
  <path class="cls-1" d="m9.83,13.78c.09-.16.3-.21.46-.12l1.32.76c.16.09.21.3.12.46-.09.16-.3.21-.46.12l-1.32-.76c-.16-.09-.21-.3-.12-.46Z"/>
  <path class="cls-1" d="m15.92,3.12c.09-.16.3-.21.46-.12l1.32.76c.16.09.21.3.12.46-.09.16-.3.21-.46.12l-1.32-.76c-.16-.09-.21-.3-.12-.46Z"/>
  <path class="cls-1" d="m5.36.17c-.18,0-.33.15-.33.33v2.83c0,.37-.3.67-.67.67H1.69c-.18,0-.33.15-.33.33s.15.33.33.33h2.67c.74,0,1.33-.6,1.33-1.33V.5c0-.18-.15-.33-.33-.33Z"/>
</svg>