<svg width="22" height="21" viewBox="0 0 22 21" fill="none" xmlns="http://www.w3.org/2000/svg">
<path d="M16.5984 9.43359C17.0514 9.43359 17.4187 9.06633 17.4187 8.61328C17.4187 8.16024 17.0514 7.79297 16.5984 7.79297C16.1453 7.79297 15.7781 8.16024 15.7781 8.61328C15.7781 9.06633 16.1453 9.43359 16.5984 9.43359Z" fill="white"/>
<path d="M18.4851 1.64062H17.4187V0.820312C17.4187 0.367254 17.0514 0 16.5984 0C16.1453 0 15.7781 0.367254 15.7781 0.820312V1.64062H12.0457V0.820312C12.0457 0.367254 11.6784 0 11.2253 0C10.7723 0 10.405 0.367254 10.405 0.820312V1.64062H6.71362V0.820312C6.71362 0.367254 6.34637 0 5.89331 0C5.44025 0 5.073 0.367254 5.073 0.820312V1.64062H4.04761C2.23833 1.64062 0.766357 3.11259 0.766357 4.92188V17.7188C0.766357 19.528 2.23833 21 4.04761 21H10.323C10.7761 21 11.1433 20.6327 11.1433 20.1797C11.1433 19.7266 10.7761 19.3594 10.323 19.3594H4.04761C3.14297 19.3594 2.40698 18.6234 2.40698 17.7188V4.92188C2.40698 4.01723 3.14297 3.28125 4.04761 3.28125H5.073V4.10156C5.073 4.55462 5.44025 4.92188 5.89331 4.92188C6.34637 4.92188 6.71362 4.55462 6.71362 4.10156V3.28125H10.405V4.10156C10.405 4.55462 10.7723 4.92188 11.2253 4.92188C11.6784 4.92188 12.0457 4.55462 12.0457 4.10156V3.28125H15.7781V4.10156C15.7781 4.55462 16.1453 4.92188 16.5984 4.92188C17.0514 4.92188 17.4187 4.55462 17.4187 4.10156V3.28125H18.4851C19.3897 3.28125 20.1257 4.01723 20.1257 4.92188V9.59766C20.1257 10.0507 20.493 10.418 20.946 10.418C21.3991 10.418 21.7664 10.0507 21.7664 9.59766V4.92188C21.7664 3.11259 20.2944 1.64062 18.4851 1.64062Z" fill="white"/>
<path d="M16.8035 11.0742C14.0669 11.0742 11.8406 13.3005 11.8406 16.0371C11.8406 18.7737 14.0669 21 16.8035 21C19.54 21 21.7664 18.7737 21.7664 16.0371C21.7664 13.3005 19.54 11.0742 16.8035 11.0742ZM16.8035 19.3594C14.9716 19.3594 13.4812 17.869 13.4812 16.0371C13.4812 14.2052 14.9716 12.7148 16.8035 12.7148C18.6353 12.7148 20.1257 14.2052 20.1257 16.0371C20.1257 17.869 18.6353 19.3594 16.8035 19.3594Z" fill="white"/>
<path d="M18.5475 14.2967L18.5475 14.2967L18.5456 14.2985L16.0996 16.7446L15.0457 15.6905L15.0457 15.6904L15.0438 15.6886C14.9537 15.6015 14.8329 15.5533 14.7075 15.5544C14.5822 15.5555 14.4622 15.6058 14.3736 15.6944C14.2849 15.7831 14.2347 15.903 14.2336 16.0284C14.2325 16.1537 14.2807 16.2745 14.3678 16.3647L14.3677 16.3647L14.3696 16.3665L15.7615 17.7588L15.7615 17.7588C15.8512 17.8484 15.9728 17.8988 16.0995 17.8988C16.2263 17.8988 16.3479 17.8484 16.4376 17.7588L16.4376 17.7588L19.2217 14.9746L19.2218 14.9747L19.2236 14.9728C19.3107 14.8826 19.3588 14.7618 19.3578 14.6365C19.3567 14.5111 19.3064 14.3912 19.2177 14.3025C19.1291 14.2139 19.0092 14.1636 18.8838 14.1625C18.7584 14.1614 18.6377 14.2096 18.5475 14.2967Z" fill="white" stroke="white" stroke-width="0.3"/>
<path d="M13.03 9.43359C13.4831 9.43359 13.8503 9.06633 13.8503 8.61328C13.8503 8.16024 13.4831 7.79297 13.03 7.79297C12.577 7.79297 12.2097 8.16024 12.2097 8.61328C12.2097 9.06633 12.577 9.43359 13.03 9.43359Z" fill="white"/>
<path d="M9.46167 13C9.91472 13 10.282 12.6327 10.282 12.1797C10.282 11.7266 9.91472 11.3594 9.46167 11.3594C9.00862 11.3594 8.64136 11.7266 8.64136 12.1797C8.64136 12.6327 9.00862 13 9.46167 13Z" fill="white"/>
<path d="M5.89331 9.43359C6.34636 9.43359 6.71362 9.06633 6.71362 8.61328C6.71362 8.16024 6.34636 7.79297 5.89331 7.79297C5.44026 7.79297 5.073 8.16024 5.073 8.61328C5.073 9.06633 5.44026 9.43359 5.89331 9.43359Z" fill="white"/>
<path d="M5.89331 13C6.34636 13 6.71362 12.6327 6.71362 12.1797C6.71362 11.7266 6.34636 11.3594 5.89331 11.3594C5.44026 11.3594 5.073 11.7266 5.073 12.1797C5.073 12.6327 5.44026 13 5.89331 13Z" fill="white"/>
<path d="M5.89331 16.5703C6.34636 16.5703 6.71362 16.203 6.71362 15.75C6.71362 15.297 6.34636 14.9297 5.89331 14.9297C5.44026 14.9297 5.073 15.297 5.073 15.75C5.073 16.203 5.44026 16.5703 5.89331 16.5703Z" fill="white"/>
<path d="M9.46167 16.5703C9.91472 16.5703 10.282 16.203 10.282 15.75C10.282 15.297 9.91472 14.9297 9.46167 14.9297C9.00862 14.9297 8.64136 15.297 8.64136 15.75C8.64136 16.203 9.00862 16.5703 9.46167 16.5703Z" fill="white"/>
<path d="M9.46167 9.43359C9.91472 9.43359 10.282 9.06633 10.282 8.61328C10.282 8.16024 9.91472 7.79297 9.46167 7.79297C9.00862 7.79297 8.64136 8.16024 8.64136 8.61328C8.64136 9.06633 9.00862 9.43359 9.46167 9.43359Z" fill="white"/>
</svg>
