<svg width="21" height="21" viewBox="0 0 21 21" fill="none" xmlns="http://www.w3.org/2000/svg">
<path d="M15.832 9.43359C16.2851 9.43359 16.6523 9.06633 16.6523 8.61328C16.6523 8.16024 16.2851 7.79297 15.832 7.79297C15.379 7.79297 15.0117 8.16024 15.0117 8.61328C15.0117 9.06633 15.379 9.43359 15.832 9.43359Z" fill="#6E6BB3"/>
<path d="M17.7188 1.64062H16.6523V0.820312C16.6523 0.367254 16.2851 0 15.832 0C15.379 0 15.0117 0.367254 15.0117 0.820312V1.64062H11.2793V0.820312C11.2793 0.367254 10.912 0 10.459 0C10.0059 0 9.63867 0.367254 9.63867 0.820312V1.64062H5.94727V0.820312C5.94727 0.367254 5.58001 0 5.12695 0C4.67389 0 4.30664 0.367254 4.30664 0.820312V1.64062H3.28125C1.47197 1.64062 0 3.11259 0 4.92188V17.7188C0 19.528 1.47197 21 3.28125 21H9.55664C10.0097 21 10.377 20.6327 10.377 20.1797C10.377 19.7266 10.0097 19.3594 9.55664 19.3594H3.28125C2.37661 19.3594 1.64062 18.6234 1.64062 17.7188V4.92188C1.64062 4.01723 2.37661 3.28125 3.28125 3.28125H4.30664V4.10156C4.30664 4.55462 4.67389 4.92188 5.12695 4.92188C5.58001 4.92188 5.94727 4.55462 5.94727 4.10156V3.28125H9.63867V4.10156C9.63867 4.55462 10.0059 4.92188 10.459 4.92188C10.912 4.92188 11.2793 4.55462 11.2793 4.10156V3.28125H15.0117V4.10156C15.0117 4.55462 15.379 4.92188 15.832 4.92188C16.2851 4.92188 16.6523 4.55462 16.6523 4.10156V3.28125H17.7188C18.6234 3.28125 19.3594 4.01723 19.3594 4.92188V9.59766C19.3594 10.0507 19.7266 10.418 20.1797 10.418C20.6327 10.418 21 10.0507 21 9.59766V4.92188C21 3.11259 19.528 1.64062 17.7188 1.64062Z" fill="#6E6BB3"/>
<path d="M16.0371 11.0742C13.3005 11.0742 11.0742 13.3005 11.0742 16.0371C11.0742 18.7737 13.3005 21 16.0371 21C18.7737 21 21 18.7737 21 16.0371C21 13.3005 18.7737 11.0742 16.0371 11.0742ZM16.0371 19.3594C14.2052 19.3594 12.7148 17.869 12.7148 16.0371C12.7148 14.2052 14.2052 12.7148 16.0371 12.7148C17.869 12.7148 19.3594 14.2052 19.3594 16.0371C19.3594 17.869 17.869 19.3594 16.0371 19.3594Z" fill="#6E6BB3"/>
<path d="M17.7811 14.2967L17.7811 14.2967L17.7793 14.2985L15.3332 16.7446L14.2793 15.6905L14.2794 15.6904L14.2775 15.6886C14.1873 15.6015 14.0665 15.5533 13.9412 15.5544C13.8158 15.5555 13.6959 15.6058 13.6072 15.6944C13.5186 15.7831 13.4683 15.903 13.4672 16.0284C13.4661 16.1537 13.5143 16.2745 13.6014 16.3647L13.6014 16.3647L13.6032 16.3665L14.9951 17.7588L14.9952 17.7588C15.0848 17.8484 15.2064 17.8988 15.3332 17.8988C15.46 17.8988 15.5816 17.8484 15.6712 17.7588L15.6712 17.7588L18.4554 14.9746L18.4554 14.9747L18.4572 14.9728C18.5443 14.8826 18.5925 14.7618 18.5914 14.6365C18.5903 14.5111 18.54 14.3912 18.4514 14.3025C18.3627 14.2139 18.2428 14.1636 18.1174 14.1625C17.9921 14.1614 17.8713 14.2096 17.7811 14.2967Z" fill="#6E6BB3" stroke="#6E6BB3" stroke-width="0.3"/>
<path d="M12.2637 9.43359C12.7167 9.43359 13.084 9.06633 13.084 8.61328C13.084 8.16024 12.7167 7.79297 12.2637 7.79297C11.8106 7.79297 11.4434 8.16024 11.4434 8.61328C11.4434 9.06633 11.8106 9.43359 12.2637 9.43359Z" fill="#6E6BB3"/>
<path d="M8.69531 13C9.14836 13 9.51562 12.6327 9.51562 12.1797C9.51562 11.7266 9.14836 11.3594 8.69531 11.3594C8.24227 11.3594 7.875 11.7266 7.875 12.1797C7.875 12.6327 8.24227 13 8.69531 13Z" fill="#6E6BB3"/>
<path d="M5.12695 9.43359C5.58 9.43359 5.94727 9.06633 5.94727 8.61328C5.94727 8.16024 5.58 7.79297 5.12695 7.79297C4.67391 7.79297 4.30664 8.16024 4.30664 8.61328C4.30664 9.06633 4.67391 9.43359 5.12695 9.43359Z" fill="#6E6BB3"/>
<path d="M5.12695 13C5.58 13 5.94727 12.6327 5.94727 12.1797C5.94727 11.7266 5.58 11.3594 5.12695 11.3594C4.67391 11.3594 4.30664 11.7266 4.30664 12.1797C4.30664 12.6327 4.67391 13 5.12695 13Z" fill="#6E6BB3"/>
<path d="M5.12695 16.5703C5.58 16.5703 5.94727 16.203 5.94727 15.75C5.94727 15.297 5.58 14.9297 5.12695 14.9297C4.67391 14.9297 4.30664 15.297 4.30664 15.75C4.30664 16.203 4.67391 16.5703 5.12695 16.5703Z" fill="#6E6BB3"/>
<path d="M8.69531 16.5703C9.14836 16.5703 9.51562 16.203 9.51562 15.75C9.51562 15.297 9.14836 14.9297 8.69531 14.9297C8.24227 14.9297 7.875 15.297 7.875 15.75C7.875 16.203 8.24227 16.5703 8.69531 16.5703Z" fill="#6E6BB3"/>
<path d="M8.69531 9.43359C9.14836 9.43359 9.51562 9.06633 9.51562 8.61328C9.51562 8.16024 9.14836 7.79297 8.69531 7.79297C8.24227 7.79297 7.875 8.16024 7.875 8.61328C7.875 9.06633 8.24227 9.43359 8.69531 9.43359Z" fill="#6E6BB3"/>
</svg>
