<?xml version="1.0" encoding="UTF-8"?>
<svg id="Layer_6" data-name="Layer 6" xmlns="http://www.w3.org/2000/svg" viewBox="0 0 20.04 20.01">
  <defs>
    <style>
      .cls-1 {
        fill: #696876;
      }

      .cls-1, .cls-2 {
        fill-rule: evenodd;
      }

      .cls-2 {
        fill: #f48382;
      }
    </style>
  </defs>
  <path class="cls-2" d="m10,8.18c-1,0-1.82.81-1.82,1.82,0,.17-.14.3-.3.3s-.3-.14-.3-.3c0-1.34,1.09-2.42,2.42-2.42.17,0,.3.14.3.3s-.14.3-.3.3Z"/>
  <path class="cls-2" d="m12.12,9.7c.17,0,.3.14.3.3,0,1.34-1.09,2.42-2.42,2.42-.17,0-.3-.14-.3-.3s.14-.3.3-.3c1,0,1.82-.81,1.82-1.82,0-.17.14-.3.3-.3Z"/>
  <path class="cls-1" d="m10,5.76c-2.34,0-4.24,1.9-4.24,4.24s1.9,4.24,4.24,4.24,4.24-1.9,4.24-4.24-1.9-4.24-4.24-4.24Zm-4.85,4.24c0-2.68,2.17-4.85,4.85-4.85s4.85,2.17,4.85,4.85-2.17,4.85-4.85,4.85-4.85-2.17-4.85-4.85Z"/>
  <path class="cls-1" d="m8.37.81C8.37.36,8.75,0,9.2,0h1.41C10.77,0,10.91.14,10.91.3s-.14.3-.3.3h-1.41c-.13,0-.22.1-.22.21v1.02s0,.04,0,.05c.02.08.01.17-.03.24-.05.07-.12.12-.2.14-1.12.2-2.15.63-3.06,1.24-.07.05-.16.06-.24.04-.08-.02-.15-.07-.19-.14,0-.02-.02-.03-.04-.05l-.74-.72c-.09-.08-.23-.08-.32,0l-1.48,1.44c-.08.08-.08.21,0,.29l.74.72s.03.03.05.04c.08.04.13.11.15.2.02.08,0,.17-.05.24-.62.88-1.06,1.89-1.27,2.98-.02.08-.07.16-.14.2-.07.04-.16.06-.24.03-.02,0-.04,0-.06,0H.83c-.13,0-.22.1-.22.21v2.04c0,.11.09.21.22.21h1.05s.04,0,.06,0c.08-.02.17-.01.24.03.07.04.12.12.14.2.21,1.09.65,2.1,1.27,2.98.05.07.07.16.05.24-.02.08-.07.16-.15.2-.02,0-.03.02-.05.04l-.74.72c-.08.08-.08.21,0,.29l1.48,1.44c.09.08.23.08.32,0l.74-.72s.03-.03.04-.05c.04-.07.11-.13.19-.14.08-.02.17,0,.24.04.9.6,1.94,1.03,3.06,1.24.08.02.16.07.2.14.05.07.06.16.03.24,0,.02,0,.04,0,.05v1.02c0,.11.09.21.22.21h1.41c.17,0,.3.14.3.3s-.14.3-.3.3h-1.41c-.45,0-.83-.36-.83-.81v-.92c-1.01-.22-1.95-.6-2.79-1.13l-.67.66c-.32.31-.84.31-1.16,0l-1.48-1.44c-.33-.32-.33-.84,0-1.16l.66-.65c-.54-.82-.93-1.74-1.15-2.72h-.95c-.45,0-.83-.36-.83-.81v-2.04c0-.46.38-.81.83-.81h.95c.22-.98.62-1.9,1.15-2.72l-.66-.65c-.33-.32-.33-.84,0-1.16l1.48-1.44c.32-.31.84-.31,1.16,0l.67.66c.84-.53,1.79-.91,2.79-1.13v-.92Z"/>
  <path class="cls-1" d="m10.3.3C10.3.14,10.44,0,10.61,0h.26C11.32,0,11.69.36,11.69.81v.92c1,.22,1.93.6,2.77,1.13l.67-.65c.32-.32.84-.32,1.16,0l1.47,1.44c.32.32.32.84,0,1.15l-.66.65c.53.82.92,1.74,1.14,2.72h.94c.45,0,.82.36.82.81v2.04c0,.45-.37.81-.82.81h-.94c-.22.98-.61,1.9-1.14,2.72l.66.65c.32.32.32.84,0,1.15l-1.47,1.44c-.32.32-.84.32-1.16,0l-.67-.65c-.84.53-1.77.91-2.77,1.13v.92c0,.45-.37.81-.82.81h-.26c-.17,0-.3-.14-.3-.3s.14-.3.3-.3h.26c.12,0,.22-.1.22-.21v-1.02s0-.04,0-.06c-.02-.08-.01-.17.03-.24.04-.07.12-.12.2-.14,1.11-.2,2.14-.63,3.04-1.24.07-.05.16-.06.24-.04.08.02.15.07.19.15,0,.02.02.03.04.05l.73.72c.08.08.22.08.31,0l1.47-1.44c.08-.08.08-.21,0-.29l-.73-.72s-.03-.03-.05-.04c-.08-.04-.13-.11-.15-.2-.02-.08,0-.17.05-.24.61-.88,1.05-1.89,1.26-2.98.02-.08.07-.16.14-.2.07-.04.16-.06.24-.03.02,0,.04,0,.06,0h1.04c.12,0,.22-.1.22-.21v-2.04c0-.11-.09-.21-.22-.21h-1.04s-.04,0-.06,0c-.08.02-.17.01-.24-.03-.07-.04-.12-.12-.14-.2-.21-1.09-.64-2.1-1.26-2.98-.05-.07-.07-.16-.05-.24.02-.08.07-.16.15-.2.02,0,.03-.02.05-.04l.73-.72c.08-.08.08-.21,0-.29l-1.47-1.44c-.09-.08-.22-.08-.31,0l-.73.72s-.03.03-.04.05c-.04.07-.11.13-.19.15-.08.02-.17,0-.24-.04-.9-.6-1.93-1.03-3.04-1.24-.08-.02-.16-.07-.2-.14-.05-.07-.06-.16-.03-.24,0-.02,0-.04,0-.06V.81c0-.11-.09-.21-.22-.21h-.26c-.17,0-.3-.14-.3-.3Z"/>
</svg>